<?xml version="1.0" encoding="UTF-8"?>
<svg id="Layer_1" data-name="Layer 1" xmlns="http://www.w3.org/2000/svg" xmlns:xlink="http://www.w3.org/1999/xlink" viewBox="0 0 253.53 302.08">
  <defs>
    <style>
      .cls-1 {
        fill: url(#linear-gradient-2);
      }

      .cls-2 {
        fill: url(#linear-gradient-17);
      }

      .cls-3 {
        fill: url(#linear-gradient-15);
      }

      .cls-4 {
        fill: url(#linear-gradient-18);
      }

      .cls-5 {
        fill: url(#linear-gradient-40);
      }

      .cls-6 {
        fill: url(#linear-gradient-28);
      }

      .cls-7 {
        fill: url(#linear-gradient-14);
      }

      .cls-8 {
        fill: url(#linear-gradient-36);
      }

      .cls-9 {
        fill: url(#linear-gradient-20);
      }

      .cls-10 {
        fill: url(#linear-gradient-6);
      }

      .cls-11 {
        fill: url(#linear-gradient-35);
      }

      .cls-12 {
        fill: url(#linear-gradient-32);
      }

      .cls-13 {
        fill: url(#linear-gradient-11);
      }

      .cls-14 {
        fill: url(#linear-gradient-39);
      }

      .cls-15 {
        fill: url(#linear-gradient-10);
      }

      .cls-16 {
        fill: url(#linear-gradient-37);
      }

      .cls-17 {
        fill: url(#linear-gradient-16);
      }

      .cls-18 {
        fill: url(#linear-gradient-31);
      }

      .cls-19 {
        fill: url(#linear-gradient-41);
      }

      .cls-20 {
        fill: url(#linear-gradient-21);
      }

      .cls-21 {
        fill: url(#linear-gradient-25);
      }

      .cls-22 {
        fill: url(#linear-gradient-5);
      }

      .cls-23 {
        fill: url(#linear-gradient-34);
      }

      .cls-24 {
        fill: url(#linear-gradient-7);
      }

      .cls-25 {
        fill: url(#linear-gradient-24);
      }

      .cls-26 {
        fill: url(#linear-gradient-9);
      }

      .cls-27 {
        fill: url(#linear-gradient-22);
      }

      .cls-28 {
        fill: url(#linear-gradient-42);
      }

      .cls-29 {
        fill: url(#linear-gradient-3);
      }

      .cls-30 {
        fill: url(#linear-gradient);
      }

      .cls-31 {
        fill: url(#linear-gradient-27);
      }

      .cls-32 {
        fill: url(#linear-gradient-33);
      }

      .cls-33 {
        fill: url(#linear-gradient-38);
      }

      .cls-34 {
        fill: url(#linear-gradient-29);
      }

      .cls-35 {
        fill: url(#linear-gradient-30);
      }

      .cls-36 {
        fill: url(#linear-gradient-23);
      }

      .cls-37 {
        fill: url(#linear-gradient-19);
      }

      .cls-38 {
        fill: url(#linear-gradient-4);
      }

      .cls-39 {
        fill: url(#linear-gradient-8);
      }

      .cls-40 {
        fill: url(#linear-gradient-12);
      }

      .cls-41 {
        fill: url(#linear-gradient-13);
      }

      .cls-42 {
        fill: url(#linear-gradient-26);
      }
    </style>
    <linearGradient id="linear-gradient" x1="505.58" y1="-76.21" x2="515.29" y2="-76.21" gradientTransform="translate(-263.78 369.23) rotate(-9.91)" gradientUnits="userSpaceOnUse">
      <stop offset="0" stop-color="#e5e5e4"/>
      <stop offset=".31" stop-color="#8d4b9c"/>
      <stop offset=".59" stop-color="#7980b4"/>
      <stop offset="1" stop-color="#31c0d6"/>
    </linearGradient>
    <linearGradient id="linear-gradient-2" x1="481.94" y1="-52.04" x2="497.77" y2="-52.04" xlink:href="#linear-gradient"/>
    <linearGradient id="linear-gradient-3" x1="494.53" y1="-86.82" x2="523.67" y2="-86.82" xlink:href="#linear-gradient"/>
    <linearGradient id="linear-gradient-4" x1="369.88" y1="-274.94" x2="388.94" y2="-274.94" xlink:href="#linear-gradient"/>
    <linearGradient id="linear-gradient-5" x1="458.43" y1="-65.14" x2="533.45" y2="-65.14" xlink:href="#linear-gradient"/>
    <linearGradient id="linear-gradient-6" x1="381.82" y1="-277.95" x2="461.43" y2="-277.95" xlink:href="#linear-gradient"/>
    <linearGradient id="linear-gradient-7" x1="330.69" y1="-238.06" x2="379.87" y2="-238.06" xlink:href="#linear-gradient"/>
    <linearGradient id="linear-gradient-8" x1="296.55" y1="-172.05" x2="329.62" y2="-172.05" xlink:href="#linear-gradient"/>
    <linearGradient id="linear-gradient-9" x1="436.27" y1="-39.69" x2="473.81" y2="-39.69" xlink:href="#linear-gradient"/>
    <linearGradient id="linear-gradient-10" x1="471.75" y1="-112.7" x2="546.61" y2="-112.7" xlink:href="#linear-gradient"/>
    <linearGradient id="linear-gradient-11" x1="418.57" y1="-275.48" x2="493" y2="-275.48" xlink:href="#linear-gradient"/>
    <linearGradient id="linear-gradient-12" x1="374.01" y1="-254.83" x2="415.75" y2="-254.83" xlink:href="#linear-gradient"/>
    <linearGradient id="linear-gradient-13" x1="308.72" y1="-185.85" x2="369.93" y2="-185.85" xlink:href="#linear-gradient"/>
    <linearGradient id="linear-gradient-14" x1="289.6" y1="-124.73" x2="305.82" y2="-124.73" xlink:href="#linear-gradient"/>
    <linearGradient id="linear-gradient-15" x1="413.29" y1="-42.72" x2="464.27" y2="-42.72" xlink:href="#linear-gradient"/>
    <linearGradient id="linear-gradient-16" x1="461.19" y1="-135.15" x2="555.34" y2="-135.15" xlink:href="#linear-gradient"/>
    <linearGradient id="linear-gradient-17" x1="364.78" y1="-244.6" x2="522.06" y2="-244.6" xlink:href="#linear-gradient"/>
    <linearGradient id="linear-gradient-18" x1="318.82" y1="-124.85" x2="321.79" y2="-124.85" xlink:href="#linear-gradient"/>
    <linearGradient id="linear-gradient-19" x1="318.83" y1="-167.65" x2="360.47" y2="-167.65" xlink:href="#linear-gradient"/>
    <linearGradient id="linear-gradient-20" x1="289.04" y1="-112.7" x2="311.95" y2="-112.7" xlink:href="#linear-gradient"/>
    <linearGradient id="linear-gradient-21" x1="392.28" y1="-74.99" x2="522.04" y2="-74.99" xlink:href="#linear-gradient"/>
    <linearGradient id="linear-gradient-22" x1="524.41" y1="-176.68" x2="547.28" y2="-176.68" xlink:href="#linear-gradient"/>
    <linearGradient id="linear-gradient-23" x1="440.56" y1="-234.07" x2="545.68" y2="-234.07" xlink:href="#linear-gradient"/>
    <linearGradient id="linear-gradient-24" x1="289.8" y1="-173.8" x2="434.19" y2="-173.8" xlink:href="#linear-gradient"/>
    <linearGradient id="linear-gradient-25" x1="374.92" y1="-22.69" x2="420.35" y2="-22.69" xlink:href="#linear-gradient"/>
    <linearGradient id="linear-gradient-26" x1="424.05" y1="-102.23" x2="487.86" y2="-102.23" xlink:href="#linear-gradient"/>
    <linearGradient id="linear-gradient-27" x1="409.3" y1="-199" x2="535.2" y2="-199" xlink:href="#linear-gradient"/>
    <linearGradient id="linear-gradient-28" x1="291.88" y1="-152.49" x2="403.8" y2="-152.49" xlink:href="#linear-gradient"/>
    <linearGradient id="linear-gradient-29" x1="354.77" y1="-80.48" x2="455.67" y2="-80.48" xlink:href="#linear-gradient"/>
    <linearGradient id="linear-gradient-30" x1="463.92" y1="-195.3" x2="523.12" y2="-195.3" xlink:href="#linear-gradient"/>
    <linearGradient id="linear-gradient-31" x1="367.96" y1="-197.46" x2="467.37" y2="-197.46" xlink:href="#linear-gradient"/>
    <linearGradient id="linear-gradient-32" x1="295.17" y1="-112.72" x2="368.02" y2="-112.72" xlink:href="#linear-gradient"/>
    <linearGradient id="linear-gradient-33" x1="339.87" y1="-74.37" x2="425" y2="-74.37" xlink:href="#linear-gradient"/>
    <linearGradient id="linear-gradient-34" x1="424.21" y1="-180.72" x2="511.03" y2="-180.72" xlink:href="#linear-gradient"/>
    <linearGradient id="linear-gradient-35" x1="342.42" y1="-142.97" x2="450.93" y2="-142.97" xlink:href="#linear-gradient"/>
    <linearGradient id="linear-gradient-36" x1="300.36" y1="-66.13" x2="338.83" y2="-66.13" xlink:href="#linear-gradient"/>
    <linearGradient id="linear-gradient-37" x1="326.67" y1="-61.59" x2="404.73" y2="-61.59" xlink:href="#linear-gradient"/>
    <linearGradient id="linear-gradient-38" x1="401.91" y1="-160.09" x2="498.95" y2="-160.09" xlink:href="#linear-gradient"/>
    <linearGradient id="linear-gradient-39" x1="368.7" y1="-120.17" x2="400.06" y2="-120.17" xlink:href="#linear-gradient"/>
    <linearGradient id="linear-gradient-40" x1="307.11" y1="-59.36" x2="363.52" y2="-59.36" xlink:href="#linear-gradient"/>
    <linearGradient id="linear-gradient-41" x1="404.08" y1="-175.33" x2="486.86" y2="-175.33" xlink:href="#linear-gradient"/>
    <linearGradient id="linear-gradient-42" x1="315.81" y1="-88.87" x2="402.17" y2="-88.87" xlink:href="#linear-gradient"/>
  </defs>
  <path class="cls-30" d="m229.92,201.53c-.67-1.53-2.45-2.23-3.98-1.56-.73.32-1.46.63-2.2.93-1.1.45-1.83,1.52-1.87,2.71-.05,1.95-.12,4-.22,6.13-.06,1.37.8,2.56,2.03,2.99.27.09.56.15.86.16,1.67.07,3.08-1.22,3.15-2.88.07-1.47.12-2.9.16-4.28.17-.07.33-.14.5-.22,1.53-.67,2.23-2.45,1.56-3.98Z"/>
  <path class="cls-1" d="m211.14,246.84c1.89-9,3.18-18.31,3.95-28.45.13-1.67-1.12-3.12-2.78-3.24-1.66-.13-3.11,1.12-3.24,2.78-.75,9.88-2,18.93-3.84,27.67-.2.95-.41,1.91-.63,2.88-.34,1.51.52,3.02,1.95,3.52.11.04.21.07.33.09,1.63.37,3.25-.65,3.61-2.28.22-.99.44-1.98.65-2.97Z"/>
  <path class="cls-29" d="m234.31,189.05c1.45-.82,1.96-2.67,1.13-4.12-.82-1.45-2.67-1.96-4.12-1.13-5.2,2.96-10.71,5.5-16.35,7.54-2.96,1.07-5,3.93-5.06,7.11-.04,2.27-.1,4.66-.19,7.17-.05,1.36.81,2.54,2.03,2.96.28.1.58.15.89.16,1.67.06,3.07-1.25,3.12-2.92.09-2.53.15-4.96.19-7.26.01-.7.44-1.32,1.07-1.55,5.97-2.16,11.79-4.84,17.29-7.97Z"/>
  <path class="cls-38" d="m54.76,40.32c.34.35.75.6,1.18.75,1.04.36,2.25.14,3.09-.68,3.61-3.49,7.4-6.89,11.25-10.1,1.28-1.07,1.46-2.97.39-4.25-1.07-1.28-2.97-1.46-4.25-.39-3.97,3.31-7.87,6.81-11.59,10.4-1.2,1.16-1.23,3.07-.07,4.27Z"/>
  <path class="cls-22" d="m204.03,189.66c.02-.75.51-1.39,1.24-1.59,13.28-3.61,25.4-9.78,36.04-18.33,1.3-1.04,1.51-2.95.46-4.25-1.05-1.3-2.95-1.51-4.25-.46-9.99,8.02-21.37,13.81-33.84,17.21-3.32.9-5.61,3.83-5.69,7.27-.03,1.27-.06,2.71-.09,4.31-.36,21.97-2.17,50.57-13.03,77.02-.63,1.54.1,3.31,1.65,3.94.05.02.11.04.16.06,1.5.52,3.17-.22,3.78-1.71,11.24-27.38,13.11-56.72,13.48-79.22.03-1.59.06-3,.09-4.27Z"/>
  <path class="cls-10" d="m67.6,44.72c.35.39.78.66,1.24.82,1.01.35,2.18.15,3.02-.62,19.51-17.71,41.95-30.84,66.67-39.04,1.58-.53,2.44-2.23,1.92-3.82-.53-1.58-2.23-2.44-3.82-1.92-25.53,8.46-48.69,22.02-68.83,40.3-1.24,1.12-1.33,3.03-.21,4.27Z"/>
  <path class="cls-24" d="m26.18,100.5c.13.07.26.12.4.17,1.4.48,2.98-.12,3.67-1.47,9.11-17.68,20.81-33.75,34.77-47.74,1.18-1.18,1.18-3.09,0-4.27-1.18-1.18-3.09-1.18-4.27,0-14.4,14.44-26.47,31.01-35.86,49.24-.76,1.48-.18,3.31,1.3,4.07Z"/>
  <path class="cls-39" d="m6.76,185.67c.29.1.6.16.92.17,1.67.04,3.05-1.28,3.09-2.95.53-22.13,2.62-46.26,14.27-72.78.67-1.53-.02-3.31-1.55-3.98-1.52-.65-3.31.02-3.98,1.55-12.07,27.48-14.24,52.32-14.78,75.06-.03,1.35.82,2.51,2.03,2.93Z"/>
  <path class="cls-26" d="m188.03,215.28c-1.66-.15-3.13,1.08-3.27,2.75-2.23,25.52-8.73,47.03-19.85,65.75-.85,1.43-.38,3.29,1.05,4.14.18.11.37.19.56.26,1.33.46,2.84-.06,3.59-1.31,11.6-19.52,18.36-41.86,20.67-68.31.15-1.66-1.09-3.13-2.75-3.27Z"/>
  <path class="cls-15" d="m194.63,171.96c-.95.19-1.9.55-2.82,1.07-3.33,1.89-5.51,5.59-5.69,9.65-.13,2.83-.23,6.52-.3,10.96-.04,2.12-.07,4.39-.13,6.8-.03,1.35.82,2.51,2.03,2.93.29.1.6.16.92.17,1.67.04,3.05-1.28,3.1-2.95.06-2.42.1-4.71.13-6.85.07-4.39.17-8.02.3-10.79.09-2.01,1.1-3.8,2.63-4.67.35-.2.69-.33,1-.39,22.29-4.37,41.74-16.99,54.78-35.54.96-1.36.63-3.25-.73-4.21-1.36-.96-3.25-.63-4.21.73-12.14,17.27-30.25,29.02-51,33.08Z"/>
  <path class="cls-13" d="m103.58,28.71c-1.42.87-1.88,2.73-1.01,4.15.38.62.95,1.06,1.59,1.28.82.29,1.76.21,2.56-.27,17.53-10.68,36.54-18.08,56.52-22,2.48-.49,5.01-.86,7.52-1.11,1.66-.17,2.87-1.65,2.7-3.31-.17-1.66-1.65-2.87-3.31-2.7-2.69.27-5.41.67-8.08,1.2-20.68,4.05-40.36,11.72-58.5,22.77Z"/>
  <path class="cls-40" d="m63.59,66.19c.31.28.67.49,1.04.62,1.11.38,2.39.1,3.23-.82,9.25-10.17,19.65-19.25,30.91-26.98,1.38-.94,1.73-2.82.78-4.2-.94-1.38-2.82-1.73-4.2-.78-11.65,7.99-22.41,17.38-31.97,27.9-1.12,1.24-1.03,3.15.2,4.27Z"/>
  <path class="cls-41" d="m54.73,72.18c-9.68,12.34-17.81,25.92-24.15,40.37-11.11,25.3-13.17,48.99-13.72,68.83-.04,1.35.82,2.52,2.03,2.94.28.1.59.16.91.16,1.67.05,3.06-1.27,3.1-2.94.56-20.22,2.55-42.28,13.21-66.56,6.14-13.98,14-27.13,23.37-39.07,1.03-1.31.8-3.21-.51-4.24-1.31-1.03-3.21-.8-4.24.51Z"/>
  <path class="cls-7" d="m13.58,197.1c1.64-.31,2.71-1.9,2.4-3.54-.31-1.64-1.89-2.71-3.54-2.4-1.39.27-2.87.54-4.47.82-1.9.33-3.81.73-5.66,1.18-1.62.39-2.62,2.02-2.23,3.65.25,1.04,1.01,1.82,1.95,2.14.53.18,1.11.22,1.7.08,1.73-.42,3.5-.79,5.28-1.1,1.63-.28,3.15-.56,4.57-.83Z"/>
  <path class="cls-3" d="m176.48,205.22c-1.67-.08-3.09,1.2-3.17,2.86-1.14,22.56-5.46,55.92-29.76,84.99-1.07,1.28-.9,3.19.38,4.26.29.24.61.42.95.54,1.15.4,2.48.07,3.31-.92,25.46-30.46,29.98-65.13,31.16-88.56.08-1.67-1.2-3.08-2.86-3.17Z"/>
  <path class="cls-17" d="m192.3,160.1c-2.75.54-5.39,1.64-7.86,3.29-6.17,4.11-10.06,11.23-10.4,19.03-.13,2.88-.23,6.58-.3,11.02-.02,1.34.83,2.49,2.03,2.91.3.1.61.16.94.17,1.67.03,3.04-1.3,3.07-2.97.07-4.38.17-8.03.3-10.86.26-5.89,3.14-11.22,7.71-14.27,1.8-1.2,3.71-2,5.67-2.39,19.8-3.88,36.9-15.24,48.15-31.98,6.12-9.11,10.12-19.15,11.88-29.84.27-1.65-.85-3.2-2.49-3.47-1.65-.27-3.2.84-3.47,2.49-1.62,9.83-5.29,19.06-10.93,27.45-10.35,15.4-26.08,25.85-44.3,29.42Z"/>
  <path class="cls-2" d="m58.23,87.76c-.95,1.37-.61,3.25.76,4.2.23.16.48.29.73.37,1.25.43,2.68,0,3.47-1.13,24.6-35.39,60.95-59.36,102.37-67.48,12.05-2.36,24.54-1.49,36.13,2.54,1.58.55,3.3-.29,3.84-1.86s-.29-3.3-1.86-3.84c-12.6-4.37-26.18-5.32-39.28-2.76-42.97,8.42-80.67,33.27-106.17,69.96Z"/>
  <polygon class="cls-4" points="31.77 191.14 30.79 191.12 28.75 191.09 31.77 191.14"/>
  <path class="cls-37" d="m47.17,119.83c2.36-5.39,5.03-10.7,7.94-15.8.82-1.45.32-3.29-1.13-4.12-1.45-.82-3.29-.32-4.12,1.13-3,5.28-5.77,10.78-8.22,16.36-12.13,27.63-12.56,53.16-12.89,73.68l2.04.04,4,.06c.33-19.98.74-44.84,12.39-71.35Z"/>
  <path class="cls-9" d="m21.74,207.77c1.63-.36,2.66-1.97,2.3-3.6-.36-1.63-1.97-2.66-3.6-2.3-3.14.69-6.64,1.37-10.4,2.03-2.1.37-4.21.82-6.25,1.36-1.61.42-2.58,2.07-2.16,3.69.27,1.01,1.01,1.77,1.94,2.09.55.19,1.15.22,1.75.07,1.89-.49,3.83-.92,5.76-1.25,3.85-.67,7.43-1.37,10.66-2.08Z"/>
  <path class="cls-20" d="m167.7,193.35c.05-2.84.12-7.13.29-11.06.44-9.55,5.13-18.35,12.56-23.54,3.29-2.3,6.85-3.84,10.59-4.57,12.68-2.49,24.11-8.64,33.06-17.79,1.17-1.19,1.15-3.11-.05-4.27-1.19-1.17-3.11-1.15-4.27.05-8.09,8.27-18.43,13.83-29.91,16.08-4.57.89-8.9,2.76-12.89,5.55-8.96,6.26-14.61,16.81-15.13,28.22-.18,4.02-.25,8.36-.3,11.24-.39,23.67-1.05,63.29-30.33,95.46-2.58,2.83-5.31,5.56-8.11,8.12-1.23,1.12-1.32,3.04-.2,4.27.35.39.78.66,1.24.82,1.01.35,2.18.15,3.03-.62,2.94-2.68,5.8-5.55,8.5-8.52,30.82-33.86,31.5-74.91,31.9-99.43Z"/>
  <path class="cls-27" d="m227.48,122.54c-.3.47-.6.94-.91,1.4-.93,1.38-.56,3.26.82,4.19.22.15.45.26.69.35,1.27.44,2.72,0,3.5-1.17.34-.51.68-1.03,1-1.54,8.68-13.73,11.73-30.09,8.6-46.07-.32-1.64-1.91-2.7-3.55-2.38-1.64.32-2.7,1.91-2.38,3.55,2.83,14.45.07,29.25-7.78,41.68Z"/>
  <path class="cls-36" d="m166.73,29.66c-13.19,2.59-26.02,6.92-38.15,12.87-1.5.74-2.12,2.55-1.38,4.04.37.74,1,1.27,1.72,1.52s1.57.23,2.32-.14c11.65-5.72,23.98-9.88,36.65-12.36,9.95-1.95,20.27-1.23,29.85,2.09,15.23,5.28,27.62,16.86,33.99,31.74.66,1.53,2.43,2.25,3.97,1.59,1.53-.66,2.25-2.43,1.59-3.97-7.04-16.45-20.73-29.23-37.57-35.07-10.58-3.67-21.99-4.47-32.99-2.31Z"/>
  <path class="cls-25" d="m35.11,216.8c.88-.27,1.69-.53,2.44-.79,5.14-1.76,8.66-6.44,8.95-11.92.24-4.54.33-9.63.38-12.72.31-18.89.7-42.39,11.37-66.68,13.05-29.72,34.39-54.13,61.73-70.59,1.43-.86,1.89-2.72,1.03-4.15-.86-1.43-2.72-1.89-4.15-1.03-28.41,17.11-50.59,42.47-64.14,73.34-11.16,25.4-11.55,49.58-11.88,69.06-.05,3-.14,8.02-.37,12.45-.16,3.01-2.07,5.57-4.87,6.53-.69.24-1.43.48-2.25.73-5.37,1.64-12.5,3.25-21.21,4.77-1.85.32-3.7.73-5.51,1.21-1.61.43-2.57,2.08-2.14,3.7.27,1.01,1.02,1.76,1.93,2.08.55.19,1.16.22,1.76.06,1.64-.44,3.32-.81,5-1.1,8.95-1.56,16.34-3.22,21.94-4.94Z"/>
  <path class="cls-21" d="m141.9,256.17c-1.52-.73-3.31-.09-4.03,1.42-4.01,8.37-9.22,16.1-15.48,22.98-5.03,5.53-10.66,10.56-16.72,14.97-1.35.98-1.65,2.87-.67,4.22.38.52.89.88,1.45,1.08.9.31,1.94.19,2.77-.41,6.4-4.64,12.33-9.96,17.64-15.79,6.66-7.32,12.2-15.54,16.46-24.44.72-1.5.09-3.31-1.42-4.03Z"/>
  <path class="cls-42" d="m188.82,142.32c1.64-.32,2.7-1.91,2.38-3.55-.32-1.64-1.91-2.7-3.55-2.38-15.33,3.01-28.55,14.07-35.37,29.6-2.35,5.35-2.53,16.39-2.71,27.07-.22,13.25-.5,29.74-5.18,46.88-.42,1.54.43,3.13,1.92,3.65.06.02.13.04.2.06,1.61.44,3.27-.51,3.71-2.12,4.88-17.87,5.16-34.79,5.39-48.38.15-9.13.34-20.49,2.2-24.73,6.02-13.72,17.61-23.48,31-26.1Z"/>
  <path class="cls-31" d="m203.18,133.87c.38.57.92.97,1.52,1.18.86.3,1.85.21,2.66-.34,5.61-3.73,10.39-8.49,14.19-14.15,7.65-11.39,10.42-25.07,7.78-38.54-3.51-17.86-16.37-32.67-33.57-38.64-8.57-2.97-17.8-3.62-26.71-1.87-24.78,4.86-48.05,16.41-67.3,33.41-1.25,1.1-1.37,3.01-.26,4.26,1.11,1.25,3.01,1.37,4.26.26,18.44-16.29,40.73-27.36,64.46-32.01,7.86-1.54,16-.97,23.56,1.65,15.18,5.27,26.53,18.33,29.62,34.09,2.33,11.88-.11,23.96-6.86,34.01-3.36,5-7.57,9.2-12.52,12.49-1.39.92-1.77,2.8-.84,4.19Z"/>
  <path class="cls-6" d="m55.36,219.57c2.72-2.99,3.31-11.05,3.59-28,.29-17.8.66-39.96,10.35-62.02,6.6-15.03,15.56-28.67,26.65-40.55,1.14-1.22,1.07-3.13-.15-4.27-1.22-1.14-3.13-1.07-4.27.15-11.55,12.38-20.9,26.6-27.77,42.25-10.18,23.17-10.55,46-10.86,64.35-.12,7.04-.36,21.69-2.02,24.03-6.28,6.9-29.17,10.89-36.69,12.2-1.13.2-2.29.44-3.43.72-1.62.4-2.61,2.03-2.22,3.65.25,1.04,1.01,1.81,1.95,2.14.53.18,1.12.22,1.7.08,1.01-.25,2.03-.46,3.03-.63,15.11-2.63,33.32-6.62,40.12-14.09Z"/>
  <path class="cls-34" d="m143.53,192.94c.2-11.79.38-22.92,3.22-29.39,2.91-6.62,6.86-12.55,11.76-17.61,1.16-1.2,1.13-3.11-.07-4.27-1.2-1.16-3.11-1.13-4.27.07-5.4,5.58-9.75,12.1-12.95,19.38-3.33,7.58-3.52,19.3-3.73,31.72-.38,22.86-.9,54.17-24.04,79.59-7.89,8.67-17.08,15.68-28.11,21.45-1.48.77-2.05,2.6-1.28,4.08.37.71.99,1.21,1.69,1.45.76.26,1.62.23,2.39-.18,11.66-6.1,21.41-13.54,29.78-22.74,24.68-27.11,25.22-59.74,25.61-83.56Z"/>
  <path class="cls-35" d="m211.53,113.83c5.85-8.71,7.96-19.17,5.95-29.47-2.68-13.66-12.52-24.98-25.68-29.55-6.55-2.27-13.61-2.77-20.42-1.43-1.64.32-2.7,1.91-2.38,3.55.32,1.64,1.91,2.7,3.55,2.38,5.76-1.13,11.74-.71,17.28,1.21,11.13,3.86,19.46,13.44,21.73,25,1.71,8.71-.08,17.57-5.03,24.94-4.95,7.37-12.48,12.36-21.19,14.07-6.2,1.21-12.16,3.47-17.74,6.69-1.44.84-1.94,2.68-1.1,4.13.38.65.96,1.11,1.62,1.34.8.28,1.71.22,2.5-.24,5-2.89,10.34-4.91,15.88-5.99,10.3-2.02,19.19-7.93,25.04-16.63Z"/>
  <path class="cls-18" d="m154.82,64.18c1.57-.56,2.39-2.29,1.83-3.86-.56-1.57-2.29-2.39-3.86-1.83-34.44,12.31-62.85,39.1-77.95,73.49-1.6,3.65-3.02,7.51-4.2,11.48-.46,1.56.38,3.19,1.9,3.72.04.01.09.03.13.04,1.6.48,3.28-.43,3.76-2.03,1.11-3.73,2.44-7.36,3.94-10.78,14.43-32.88,41.57-58.47,74.45-70.23Z"/>
  <path class="cls-12" d="m64.3,227.7c6.25-6.87,6.47-19.69,6.74-35.94.16-9.57.34-20.42,2.07-31.64.25-1.65-.87-3.2-2.53-3.45-1.65-.26-3.19.88-3.45,2.52-1.8,11.63-1.98,22.7-2.14,32.48-.25,14.96-.45,26.78-5.17,31.96-7.99,8.78-26.5,13-43.55,15.97-1.64.29-2.74,1.85-2.46,3.5.2,1.12.98,1.99,1.99,2.34.47.16.98.21,1.51.12,18.06-3.15,37.77-7.73,46.98-17.86Z"/>
  <path class="cls-32" d="m131.45,192.74c.14-8.16.26-15.87,1.25-22.7.24-1.65-.91-3.18-2.56-3.42-1.65-.24-3.18.91-3.42,2.56-1.04,7.21-1.17,15.11-1.31,23.47-.37,22.1-.82,49.61-20.89,71.66-9.12,10.01-20.59,17.73-35.07,23.58-1.55.62-2.29,2.39-1.67,3.93.34.84,1.02,1.45,1.81,1.72.67.23,1.42.23,2.12-.05,15.34-6.2,27.53-14.41,37.27-25.11,21.61-23.74,22.08-52.51,22.47-75.63Z"/>
  <path class="cls-23" d="m131.93,160.34c1.47.51,3.12-.19,3.75-1.64,9.21-20.96,27.33-35.96,48.48-40.1,7.13-1.4,13.28-5.49,17.34-11.51,4.05-6.03,5.51-13.27,4.12-20.4-1.86-9.46-8.67-17.3-17.78-20.46-4.53-1.57-9.42-1.91-14.13-.99-6.07,1.19-12.09,2.88-17.92,5.02-1.57.58-2.37,2.31-1.79,3.88.58,1.57,2.31,2.37,3.88,1.79,5.52-2.03,11.24-3.64,16.99-4.76,3.67-.72,7.47-.45,10.99.77,7.09,2.46,12.39,8.56,13.83,15.92,1.09,5.54-.05,11.18-3.2,15.87-3.15,4.69-7.94,7.87-13.48,8.96-23.09,4.53-42.85,20.83-52.85,43.6-.67,1.53.02,3.31,1.55,3.98.08.03.15.06.23.09Z"/>
  <path class="cls-11" d="m62.53,237.14c-1.37.95-1.71,2.83-.77,4.2.38.55.91.93,1.49,1.13.88.31,1.89.2,2.71-.37,2.77-1.91,5.21-4.03,7.26-6.28,9.32-10.24,9.57-25.08,9.88-43.88.27-16.45.58-35.08,8.31-52.69,10.44-23.78,28.38-43.67,50.52-56.02,1.46-.81,1.98-2.65,1.17-4.11-.81-1.46-2.65-1.98-4.11-1.17-23.29,12.99-42.15,33.89-53.11,58.87-8.22,18.71-8.54,38-8.82,55.02-.29,17.52-.52,31.35-8.31,39.91-1.74,1.91-3.84,3.72-6.23,5.38Z"/>
  <path class="cls-8" d="m58.09,243.36c-.69-1.52-2.48-2.19-4-1.5-7.69,3.5-17.15,6.19-30.66,8.73-1.64.31-2.72,1.89-2.41,3.53.21,1.1.99,1.95,1.98,2.3.48.17,1.01.21,1.55.11,14.01-2.64,23.89-5.47,32.04-9.17,1.52-.69,2.19-2.48,1.5-4Z"/>
  <path class="cls-16" d="m100.05,260.24c14.94-16.41,17.91-36.37,18.83-51.93.1-1.66-1.17-3.09-2.84-3.19-1.67-.1-3.1,1.17-3.19,2.84-.92,15.47-3.68,33.3-17.27,48.22-9.67,10.63-22.97,18.49-40.63,24.05-1.59.5-2.48,2.2-1.98,3.79.3.95,1.02,1.65,1.89,1.95.59.21,1.25.23,1.89.03,18.71-5.88,32.87-14.3,43.29-25.74Z"/>
  <path class="cls-33" d="m119.37,192.54c.24-14.29.46-27.78,5.26-38.7,10.79-24.59,32.18-42.2,57.22-47.1,3.96-.78,7.38-3.05,9.63-6.4,2.25-3.35,3.06-7.37,2.29-11.33-1.6-8.17-9.56-13.52-17.73-11.92-28.1,5.51-53.54,22.84-69.8,47.54-.92,1.39-.53,3.27.86,4.19,1.39.91,3.27.53,4.18-.86,15.37-23.35,39.39-39.73,65.91-44.93,4.9-.96,9.67,2.25,10.64,7.15.47,2.38-.02,4.79-1.37,6.8-1.35,2.01-3.4,3.37-5.78,3.84-26.97,5.29-50,24.21-61.59,50.6-5.28,12.03-5.52,26.11-5.76,41.04l6.04.09Z"/>
  <path class="cls-14" d="m87.63,229.33s.06.02.09.03c1.59.5,3.29-.39,3.79-1.98,3.28-10.47,3.48-22.49,3.69-35.23.27-16.05.54-32.65,7.29-48.03.67-1.53-.02-3.31-1.55-3.98-1.52-.65-3.31.02-3.98,1.55-7.24,16.49-7.52,33.7-7.8,50.37-.21,12.28-.4,23.88-3.42,33.51-.49,1.56.36,3.22,1.89,3.76Z"/>
  <path class="cls-5" d="m82.17,243.97c1.12-1.23,1.03-3.15-.2-4.27-1.23-1.12-3.14-1.03-4.27.2-9.03,9.93-23.11,16.49-45.65,21.29-1.63.35-2.67,1.95-2.33,3.58.23,1.07,1,1.89,1.97,2.23.5.17,1.06.22,1.62.1,16.06-3.42,36.12-9.14,48.86-23.13Z"/>
  <path class="cls-19" d="m109.81,150.63c1.47.51,3.12-.19,3.75-1.64,12.38-28.21,37.04-48.43,65.96-54.1,1.64-.32,2.7-1.91,2.38-3.55-.32-1.64-1.91-2.7-3.55-2.38-30.86,6.05-57.15,27.58-70.33,57.6-.67,1.53.02,3.31,1.55,3.98.08.03.15.06.23.09Z"/>
  <path class="cls-28" d="m91.11,252.1c15.46-16.99,15.83-38.73,16.18-59.75.14-8.73.3-17.76,1.56-26.22.25-1.65-.9-3.19-2.54-3.43-1.65-.25-3.19.89-3.43,2.54-1.32,8.85-1.47,18.08-1.62,27.01-.35,20.82-.67,40.48-14.6,55.78-9.67,10.63-23.69,17.98-44.12,23.14-1.62.41-2.6,2.05-2.19,3.67.26,1.02,1.01,1.79,1.94,2.11.54.19,1.13.22,1.73.07,21.63-5.47,36.6-13.39,47.11-24.93Z"/>
</svg>