<svg width="1440" height="9710" viewBox="0 0 1440 9710" fill="none" xmlns="http://www.w3.org/2000/svg">
<mask id="mask0_94_153" style="mask-type:luminance" maskUnits="userSpaceOnUse" x="-1372" y="-7515" width="3508" height="27459">
<path d="M2135.55 -7321.3L-1351.86 -7515L-1372 19750.3L2115.42 19944L2135.55 -7321.3Z" fill="white"/>
</mask>
<g mask="url(#mask0_94_153)">
<path d="M-457.146 -11399.5C-437.657 -11395.4 -417.216 -11345.9 -393.449 -11240.8C-338.783 -11003.9 -290.298 -10686.5 -243.475 -10377.4C-139.849 -9695.4 -21.9614 -8920.63 80.9523 -8061.38C158.435 -7414.36 252.079 -6530.38 289.87 -5423.86C297 -5215.74 303.892 -4943.75 295.811 -4675.88C286.067 -4356.49 257.07 -4107.16 229.025 -3866.08C219.042 -3779.53 208.584 -3688.87 199.315 -3598.21C150.829 -3124.28 123.972 -2506.11 125.636 -1902.37C126.111 -1756.07 128.012 -1607.71 129.914 -1465.53C132.053 -1310.99 134.192 -1150.26 134.429 -989.539C134.667 -731.969 128.725 -373.432 99.0158 -117.923C76.4366 75.7698 41.0228 195.282 1.33086 207.645C-34.5582 220.009 -69.4965 149.949 -102.533 79.8904C-136.046 7.77086 -170.509 -74.6512 -202.595 -152.952C-218.282 -190.042 -233.731 -229.193 -249.417 -268.343C-411.275 -668.092 -578.836 -1080.2 -748.299 -884.451C-753.053 -878.269 -757.806 -874.148 -762.322 -867.966C-790.843 -832.937 -820.077 -795.847 -847.648 -857.664C-867.612 -900.935 -881.873 -981.297 -889.716 -1094.63C-904.214 -1302.74 -896.134 -1589.16 -887.102 -1815.82C-872.366 -2192.91 -858.343 -2681.26 -880.922 -3109.85C-884.725 -3181.97 -889.479 -3252.03 -894.232 -3317.97C-900.649 -3408.63 -907.067 -3503.42 -911.345 -3604.39C-931.547 -4094.8 -893.044 -4636.73 -864.998 -5032.35C-769.215 -6382.02 -689.593 -7818.23 -628.273 -9299.77C-617.102 -9569.7 -605.931 -9856.12 -591.671 -10231.1C-585.966 -10377.4 -580.5 -10503.1 -574.558 -10614.4C-566.239 -10771 -557.445 -10892.6 -547.225 -10999.7C-523.22 -11251.1 -490.183 -11399.5 -458.334 -11397.4C-458.334 -11399.5 -457.621 -11399.5 -457.146 -11399.5ZM-762.797 -892.692C-758.044 -898.874 -753.29 -905.056 -748.537 -909.178C-578.361 -1104.93 -410.562 -692.818 -248.229 -293.07C-232.542 -253.92 -217.093 -216.83 -201.407 -177.679C-169.32 -99.3782 -135.095 -16.9548 -101.345 55.1647C-68.7834 125.224 -34.0828 193.221 1.56863 182.918C40.3098 170.555 75.0104 55.1645 96.8766 -134.407C125.873 -383.734 131.577 -736.09 131.34 -989.539C131.102 -1148.2 128.963 -1306.87 126.824 -1461.41C124.922 -1605.65 122.783 -1754.01 122.308 -1900.31C120.644 -2508.17 147.739 -3132.52 196.701 -3610.57C206.208 -3703.29 216.665 -3791.9 226.648 -3880.5C254.456 -4119.53 282.977 -4366.79 292.722 -4680C300.803 -4941.69 293.672 -5211.62 286.78 -5415.62C249.227 -6518.02 155.82 -7397.88 78.5756 -8042.83C-24.3381 -8902.08 -141.988 -9674.79 -245.614 -10358.9C-292.199 -10665.9 -340.685 -10985.3 -394.875 -11220.2C-418.405 -11321.2 -438.132 -11370.6 -457.146 -11374.8C-488.282 -11380.9 -521.318 -11236.7 -545.086 -10985.3C-555.068 -10880.2 -563.625 -10758.6 -571.943 -10606.2C-577.885 -10497 -583.352 -10371.3 -589.056 -10225C-603.079 -9849.94 -614.488 -9561.46 -625.658 -9291.53C-687.216 -7807.93 -766.838 -6369.66 -862.621 -5017.93C-891.855 -4603.76 -928.457 -4090.68 -908.73 -3608.51C-904.69 -3509.6 -898.273 -3416.88 -891.855 -3326.21C-887.102 -3258.21 -882.348 -3188.15 -878.308 -3116.04C-855.253 -2681.26 -869.276 -2186.72 -884.25 -1805.52C-892.806 -1582.98 -901.125 -1304.8 -887.102 -1104.93C-879.496 -997.782 -865.949 -921.54 -846.935 -880.329C-836.952 -857.663 -826.494 -849.421 -816.037 -849.421C-798.449 -849.421 -780.385 -872.087 -762.797 -892.692Z" fill="#8E4B9D"/>
<path d="M-398.203 -11626.1C-338.784 -11368.6 -286.258 -11022.4 -235.395 -10686.5C-122.261 -9940.6 6.08374 -9095.78 117.554 -8162.34C173.883 -7690.47 218.091 -7259.82 253.029 -6839.46C273.469 -6594.26 291.295 -6344.93 305.793 -6101.78C321.48 -5838.03 334.077 -5570.16 343.108 -5304.35C350.714 -5079.75 358.32 -4783.03 349.526 -4496.61C339.068 -4152.5 307.457 -3882.56 277.034 -3622.93C266.101 -3528.15 254.693 -3431.3 244.473 -3330.33C191.233 -2813.13 161.999 -2137.27 163.663 -1479.95C164.138 -1319.23 166.277 -1158.5 168.416 -1001.9C170.793 -832.936 173.17 -659.849 173.408 -486.762C173.645 -210.648 167.228 178.797 135.379 452.852C122.545 562.061 106.383 648.605 87.1313 708.361C69.7809 761.936 50.0538 794.905 30.089 801.087C-8.65214 813.45 -46.6803 737.21 -82.3317 660.969C-121.073 576.486 -159.101 483.76 -191.187 405.459C-208.3 364.248 -225.888 320.976 -242.763 277.704C-330.703 61.3456 -421.495 -163.254 -511.575 -303.372C-560.06 -377.552 -604.506 -422.885 -647.525 -439.37C-695.773 -457.915 -740.694 -441.43 -784.902 -389.916C-790.131 -383.734 -795.36 -377.553 -800.351 -371.372C-831.011 -332.221 -862.86 -293.07 -892.569 -356.947C-913.96 -402.28 -929.171 -486.763 -937.49 -608.336C-944.382 -705.182 -946.997 -824.693 -945.571 -973.054C-944.382 -1088.44 -940.817 -1218.26 -934.4 -1383.11C-918 -1795.22 -902.551 -2328.9 -927.507 -2798.71C-931.786 -2877.01 -937.014 -2953.25 -942.006 -3027.43C-948.898 -3126.34 -956.029 -3227.3 -960.307 -3336.51C-969.814 -3567.3 -968.15 -3822.81 -955.553 -4121.59C-944.858 -4375.04 -927.507 -4624.36 -909.444 -4879.87C-804.391 -6344.93 -717.164 -7906.83 -649.902 -9516.13C-637.305 -9819.03 -624.708 -10140.5 -609.972 -10527.9C-603.793 -10692.7 -597.851 -10824.6 -591.909 -10942C-583.115 -11111 -573.846 -11242.9 -563.15 -11360.3C-551.504 -11486 -536.768 -11593.2 -521.082 -11667.4C-503.494 -11749.8 -485.43 -11793 -467.129 -11793C-466.654 -11793 -466.416 -11793 -465.941 -11793C-440.509 -11795.1 -417.455 -11710.6 -398.203 -11626.1ZM-800.351 -379.613C-795.36 -385.795 -790.131 -391.977 -784.902 -398.159C-740.456 -449.673 -695.536 -466.156 -647.525 -447.611C-604.743 -431.127 -560.06 -385.795 -511.575 -311.615C-421.495 -173.558 -330.465 51.0436 -242.525 269.463C-225.65 310.674 -208.062 353.946 -190.95 397.218C-158.863 475.519 -120.835 568.243 -82.094 652.726C-46.4426 731.027 -8.65214 805.207 30.089 792.844C50.0538 786.662 69.5432 753.693 86.8935 700.119C106.145 640.363 122.307 553.82 134.904 444.61C166.753 170.556 173.17 -216.829 172.695 -492.944C172.457 -666.031 170.08 -839.118 167.703 -1008.08C165.564 -1164.69 163.187 -1325.41 162.95 -1486.13C161.048 -2145.51 190.52 -2819.31 243.76 -3338.58C253.98 -3437.48 265.388 -3536.39 276.321 -3631.17C306.744 -3892.87 338.117 -4160.74 348.813 -4504.85C357.607 -4791.27 350.001 -5085.93 342.395 -5310.53C333.364 -5576.34 320.767 -5844.21 305.08 -6107.97C290.582 -6351.11 272.756 -6600.44 252.316 -6845.65C217.378 -7263.94 173.17 -7696.66 116.841 -8168.52C5.37074 -9099.9 -122.974 -9946.79 -236.108 -10692.7C-286.971 -11028.6 -339.497 -11374.8 -398.916 -11630.3C-418.168 -11712.7 -441.222 -11799.2 -466.178 -11799.2C-466.654 -11799.2 -466.891 -11799.2 -467.367 -11799.2C-485.668 -11799.2 -503.731 -11756 -521.082 -11673.5C-537.006 -11597.3 -551.504 -11492.2 -563.15 -11366.5C-573.846 -11251.1 -583.115 -11119.2 -591.909 -10950.3C-598.089 -10832.8 -603.793 -10701 -609.972 -10538.2C-624.233 -10142.5 -637.067 -9821.09 -649.664 -9518.19C-716.926 -7906.83 -804.154 -6346.99 -909.206 -4879.87C-927.27 -4626.42 -944.62 -4377.1 -955.315 -4123.65C-967.912 -3826.93 -969.338 -3571.42 -960.069 -3340.64C-955.553 -3231.43 -948.423 -3130.46 -941.768 -3031.55C-936.777 -2957.37 -931.31 -2881.13 -927.27 -2802.83C-916.337 -2594.71 -912.296 -2363.93 -914.911 -2096.06C-917.05 -1887.94 -923.229 -1663.34 -934.162 -1385.17C-940.58 -1222.38 -944.145 -1092.57 -945.333 -977.175C-946.759 -828.815 -944.145 -709.302 -937.49 -612.456C-929.171 -492.944 -914.198 -408.461 -892.807 -363.129C-881.874 -338.402 -870.703 -330.16 -859.294 -328.099C-839.33 -330.16 -819.603 -354.886 -800.351 -379.613Z" fill="#8E4B9D" stroke="#8E4B9D" stroke-width="0.5" stroke-miterlimit="10"/>
<path d="M-401.768 -12030C-337.595 -11751.8 -280.553 -11376.8 -225.412 -11014.2C-95.8787 -10159 38.1705 -9275.05 156.295 -8283.92C239.007 -7593.63 354.28 -6522.14 399.2 -5197.2C407.519 -4952 415.6 -4630.55 405.855 -4319.4C394.209 -3946.44 359.984 -3653.84 326.947 -3371.55C315.063 -3270.58 302.704 -3163.43 291.533 -3056.28C234.016 -2499.93 202.405 -1772.55 204.306 -1065.78C204.781 -892.696 207.158 -719.609 209.535 -550.643C212.149 -369.314 214.764 -181.803 215.001 5.70751C215.239 306.549 208.346 728.963 173.646 1027.74C147.264 1254.41 105.433 1392.46 59.086 1406.89C17.0174 1419.25 -24.1007 1336.83 -62.8418 1252.35C-104.435 1159.62 -145.553 1060.71 -180.254 974.17C-197.842 930.898 -215.667 887.626 -233.255 842.294C-423.871 368.365 -621.143 -124.108 -821.028 114.917C-826.495 121.099 -832.199 129.341 -837.665 135.522C-870.94 178.794 -905.641 222.066 -937.965 152.007C-961.495 100.493 -978.132 7.76832 -987.401 -124.107C-1004.51 -367.253 -994.531 -703.124 -983.836 -968.936C-966.01 -1414.02 -949.135 -1986.85 -975.755 -2491.69C-980.271 -2576.17 -985.975 -2658.59 -991.442 -2736.9C-998.81 -2844.04 -1006.42 -2953.25 -1011.41 -3072.77C-1034.94 -3647.66 -989.065 -4282.31 -955.79 -4745.94C-841.468 -6324.33 -746.635 -8007.8 -673.669 -9744.85C-659.646 -10076.6 -645.623 -10435.1 -630.412 -10837C-623.519 -11020.3 -617.577 -11158.4 -611.16 -11282C-601.891 -11465.4 -592.146 -11609.7 -580.5 -11735.4C-553.405 -12032.1 -514.426 -12211.3 -476.398 -12213.4C-475.923 -12213.4 -475.21 -12213.4 -474.734 -12213.4C-447.877 -12213.4 -422.683 -12120.7 -401.768 -12030ZM-838.141 114.917C-832.437 108.735 -826.97 100.493 -821.503 94.3113C-620.667 -144.714 -423.159 347.76 -232.305 823.749C-214.717 867.021 -196.891 912.353 -179.303 955.624C-144.602 1042.17 -103.484 1143.14 -61.8911 1233.8C-23.6253 1318.28 17.255 1400.7 58.8483 1388.34C104.482 1373.92 145.362 1239.98 171.269 1017.44C205.257 724.842 212.149 308.609 211.674 11.8889C211.436 -173.561 208.822 -361.071 206.207 -542.4C203.831 -711.366 201.454 -886.514 200.978 -1059.6C198.839 -1774.62 230.926 -2506.11 288.919 -3066.58C300.089 -3173.73 312.449 -3280.88 324.332 -3381.85C357.132 -3662.09 391.119 -3952.62 402.528 -4319.4C412.035 -4626.43 403.954 -4943.75 395.873 -5184.84C374.482 -5817.43 325.996 -6822.98 153.681 -8261.25C35.7938 -9252.38 -98.2555 -10136.4 -227.789 -10989.4C-282.692 -11352.1 -339.497 -11727.1 -403.431 -12003.2C-424.585 -12093.9 -449.778 -12188.7 -476.873 -12184.6C-513.951 -12182.5 -551.979 -12007.3 -578.361 -11716.8C-589.769 -11593.2 -599.276 -11448.9 -608.546 -11267.6C-614.725 -11144 -620.667 -11008 -627.56 -10824.6C-642.533 -10422.8 -656.794 -10064.2 -670.817 -9732.49C-743.783 -7993.38 -838.854 -6309.9 -952.938 -4727.4C-985.975 -4267.89 -1031.37 -3639.42 -1008.32 -3072.77C-1003.56 -2955.32 -995.958 -2846.1 -988.59 -2741.02C-983.123 -2660.65 -977.419 -2578.23 -972.903 -2493.75C-945.808 -1982.73 -962.921 -1401.65 -980.746 -954.512C-991.204 -692.821 -1000.95 -363.132 -984.549 -128.229C-975.755 -2.53472 -959.831 86.069 -937.014 135.522C-925.368 160.249 -913.484 170.552 -901.363 170.552C-880.685 168.492 -859.056 141.704 -838.141 114.917Z" fill="#8E4B9D" stroke="#8E4B9D" stroke-width="0.5" stroke-miterlimit="10"/>
<path d="M-406.759 -12413.3C-337.833 -12114.5 -276.751 -11710.6 -217.569 -11321.2C-78.0534 -10404.2 65.9782 -9454.31 192.659 -8386.94C257.307 -7845.02 308.408 -7344.3 348.813 -6855.95C372.343 -6571.59 392.783 -6283.11 409.42 -6000.82C427.483 -5695.85 441.744 -5384.71 452.202 -5077.69C460.996 -4816 469.79 -4471.88 459.332 -4140.13C453.865 -3960.86 442.695 -3785.72 425.82 -3600.27C410.608 -3435.42 392.307 -3278.82 374.482 -3128.4C361.647 -3019.19 348.337 -2905.86 336.216 -2790.47C274.182 -2190.84 239.719 -1407.83 242.096 -643.364C242.572 -457.914 245.424 -268.342 247.8 -87.0132C250.652 108.74 253.505 308.615 253.742 508.489C254.218 829.936 246.85 1281.2 209.772 1598.52C195.036 1726.28 176.26 1825.19 153.918 1895.24C133.716 1957.06 110.899 1994.15 87.8444 2000.33C84.2793 2000.33 80.7141 2002.39 77.3867 2002.39C36.031 2000.33 -4.37382 1917.91 -42.402 1833.43C-87.3227 1734.52 -131.293 1625.31 -168.608 1532.59C-186.671 1487.25 -204.972 1441.92 -222.798 1396.59C-325.474 1139.02 -431.715 873.207 -537.481 708.362C-594.286 619.758 -646.337 568.245 -696.486 547.639C-752.815 524.973 -805.58 545.578 -857.393 607.395C-863.335 613.577 -869.514 621.819 -875.456 630.061C-911.108 675.393 -947.947 724.848 -982.41 648.607C-1007.37 595.033 -1024.72 498.185 -1034.46 358.067C-1042.3 244.736 -1045.39 106.679 -1043.49 -66.4077C-1042.07 -200.344 -1038.03 -352.825 -1030.18 -542.396C-1010.93 -1022.51 -992.393 -1640.67 -1021.15 -2186.72C-1025.91 -2277.39 -1032.08 -2365.99 -1038.03 -2450.47C-1045.87 -2563.8 -1054.19 -2683.32 -1059.18 -2809.01C-1070.11 -3076.88 -1068.21 -3373.6 -1053.24 -3717.72C-1040.4 -4012.38 -1020.2 -4300.85 -998.81 -4595.51C-875.456 -6293.42 -773.018 -8100.52 -694.347 -9965.33C-678.898 -10330 -663.687 -10713.3 -647.763 -11137.8C-642.296 -11282 -635.641 -11451 -627.56 -11613.8C-617.815 -11809.5 -607.595 -11964.1 -595.474 -12100.1C-582.164 -12248.4 -565.764 -12372.1 -547.463 -12462.7C-527.736 -12559.6 -506.345 -12613.1 -485.668 -12615.2C-484.955 -12615.2 -484.479 -12615.2 -483.766 -12615.2C-455.721 -12609 -429.101 -12510.1 -406.759 -12413.3ZM-875.694 628.002C-869.752 619.759 -863.572 611.516 -857.631 605.335C-805.579 543.518 -753.053 522.913 -696.486 545.579C-646.337 566.184 -594.286 617.698 -537.243 706.302C-431.715 871.147 -325.474 1136.96 -222.56 1394.53C-204.735 1439.86 -186.434 1485.19 -168.37 1530.53C-131.055 1623.25 -87.0851 1732.46 -42.1644 1831.37C-4.13621 1915.85 36.2687 1998.27 77.6243 2000.33C81.1895 2000.33 84.5168 2000.33 88.082 1998.27C111.137 1992.09 133.954 1955 154.156 1893.18C176.498 1823.12 195.274 1724.22 210.01 1598.52C246.85 1281.2 254.218 831.997 253.742 510.549C253.505 310.675 250.652 108.74 247.8 -84.9526C245.186 -266.282 242.572 -453.792 242.096 -641.303C239.957 -1405.77 274.182 -2188.78 336.454 -2790.47C348.337 -2905.86 361.885 -3019.19 374.719 -3128.4C392.545 -3278.82 410.846 -3435.42 426.057 -3600.27C442.932 -3785.72 453.866 -3960.86 459.57 -4140.13C470.027 -4471.88 461.233 -4815.99 452.439 -5075.62C441.982 -5382.65 427.721 -5691.73 409.658 -5996.69C393.02 -6278.99 372.58 -6565.41 349.05 -6851.83C308.646 -7340.18 257.545 -7840.89 192.897 -8382.82C66.216 -9450.19 -77.8157 -10400.1 -217.094 -11319.1C-276.275 -11708.6 -337.358 -12112.4 -406.284 -12411.2C-428.626 -12508.1 -455.245 -12607 -484.004 -12607C-484.717 -12607 -485.192 -12607 -485.905 -12607C-506.346 -12604.9 -527.736 -12553.4 -547.463 -12454.5C-565.527 -12365.9 -582.164 -12240.2 -595.236 -12093.9C-607.358 -11960 -617.578 -11805.4 -627.323 -11607.6C-635.403 -11444.8 -642.058 -11275.8 -647.525 -11131.6C-663.449 -10707.1 -678.661 -10323.9 -694.109 -9959.15C-773.493 -8096.4 -875.932 -6291.35 -999.285 -4591.39C-1020.68 -4296.73 -1040.88 -4010.32 -1053.48 -3713.6C-1068.21 -3369.48 -1070.35 -3072.76 -1059.42 -2804.89C-1054.19 -2679.2 -1046.11 -2561.74 -1038.26 -2446.35C-1032.32 -2361.87 -1026.14 -2273.27 -1021.39 -2182.6C-992.631 -1636.55 -1010.93 -1016.32 -1030.18 -536.214C-1037.79 -346.643 -1042.07 -196.222 -1043.26 -62.2856C-1044.92 108.741 -1042.07 248.858 -1034.22 360.128C-1024.48 498.186 -1007.13 595.033 -982.41 648.607C-969.814 675.394 -957.217 685.696 -944.145 687.756C-921.565 687.756 -898.273 656.849 -875.694 628.002Z" fill="#8E4B9D"/>
<path d="M-982.41 648.607C-947.947 724.848 -911.108 675.393 -875.456 630.061C-869.514 621.819 -863.335 613.577 -857.393 607.395C-805.58 545.578 -752.815 524.973 -696.486 547.639C-646.337 568.245 -594.286 619.758 -537.481 708.362C-431.715 873.207 -325.474 1139.02 -222.798 1396.59C-204.972 1441.92 -186.671 1487.25 -168.608 1532.59C-131.293 1625.31 -87.3227 1734.52 -42.402 1833.43C-4.37382 1917.91 36.031 2000.33 77.3867 2002.39C80.7141 2002.39 84.2793 2000.33 87.8444 2000.33C110.899 1994.15 133.716 1957.06 153.918 1895.24C176.26 1825.19 195.036 1726.28 209.772 1598.52C246.85 1281.2 254.218 829.936 253.742 508.489C253.505 308.615 250.652 108.74 247.8 -87.0132C245.424 -268.342 242.572 -457.914 242.096 -643.364C239.719 -1407.83 274.182 -2190.84 336.216 -2790.47C348.337 -2905.86 361.647 -3019.19 374.482 -3128.4C392.307 -3278.82 410.608 -3435.42 425.82 -3600.27C442.695 -3785.72 453.865 -3960.86 459.332 -4140.13C469.79 -4471.88 460.996 -4816 452.202 -5077.69C441.744 -5384.71 427.483 -5695.85 409.42 -6000.82C392.783 -6283.11 372.343 -6571.59 348.813 -6855.95C308.408 -7344.3 257.307 -7845.02 192.659 -8386.94C65.9782 -9454.31 -78.0534 -10404.2 -217.569 -11321.2C-276.751 -11710.6 -337.833 -12114.5 -406.759 -12413.3C-429.101 -12510.1 -455.721 -12609 -483.766 -12615.2C-484.479 -12615.2 -484.955 -12615.2 -485.668 -12615.2C-506.345 -12613.1 -527.736 -12559.6 -547.463 -12462.7C-565.764 -12372.1 -582.164 -12248.4 -595.474 -12100.1C-607.595 -11964.1 -617.815 -11809.5 -627.56 -11613.8C-635.641 -11451 -642.296 -11282 -647.763 -11137.8C-663.687 -10713.3 -678.898 -10330 -694.347 -9965.33C-773.018 -8100.52 -875.456 -6293.42 -998.81 -4595.51C-1020.2 -4300.85 -1040.4 -4012.38 -1053.24 -3717.72C-1068.21 -3373.6 -1070.11 -3076.88 -1059.18 -2809.01C-1054.19 -2683.32 -1045.87 -2563.8 -1038.03 -2450.47C-1032.08 -2365.99 -1025.91 -2277.39 -1021.15 -2186.72C-992.393 -1640.67 -1010.93 -1022.51 -1030.18 -542.396C-1038.03 -352.825 -1042.07 -200.344 -1043.49 -66.4077C-1045.39 106.679 -1042.3 244.736 -1034.46 358.067C-1024.72 498.185 -1007.37 595.033 -982.41 648.607ZM-982.41 648.607C-1007.13 595.033 -1024.48 498.186 -1034.22 360.128C-1042.07 248.858 -1044.92 108.741 -1043.26 -62.2856C-1042.07 -196.222 -1037.79 -346.643 -1030.18 -536.214C-1010.93 -1016.32 -992.631 -1636.55 -1021.39 -2182.6C-1026.14 -2273.27 -1032.32 -2361.87 -1038.26 -2446.35C-1046.11 -2561.74 -1054.19 -2679.2 -1059.42 -2804.89C-1070.35 -3072.76 -1068.21 -3369.48 -1053.48 -3713.6C-1040.88 -4010.32 -1020.68 -4296.73 -999.285 -4591.39C-875.932 -6291.35 -773.493 -8096.4 -694.109 -9959.15C-678.661 -10323.9 -663.449 -10707.1 -647.525 -11131.6C-642.058 -11275.8 -635.403 -11444.8 -627.323 -11607.6C-617.578 -11805.4 -607.358 -11960 -595.236 -12093.9C-582.164 -12240.2 -565.527 -12365.9 -547.463 -12454.5C-527.736 -12553.4 -506.346 -12604.9 -485.905 -12607C-485.192 -12607 -484.717 -12607 -484.004 -12607C-455.245 -12607 -428.626 -12508.1 -406.284 -12411.2C-337.358 -12112.4 -276.275 -11708.6 -217.094 -11319.1C-77.8157 -10400.1 66.216 -9450.19 192.897 -8382.82C257.545 -7840.89 308.646 -7340.18 349.05 -6851.83C372.58 -6565.41 393.02 -6278.99 409.658 -5996.69C427.721 -5691.73 441.982 -5382.65 452.439 -5075.62C461.233 -4815.99 470.027 -4471.88 459.57 -4140.13C453.866 -3960.86 442.932 -3785.72 426.057 -3600.27C410.846 -3435.42 392.545 -3278.82 374.719 -3128.4C361.885 -3019.19 348.337 -2905.86 336.454 -2790.47C274.182 -2188.78 239.957 -1405.77 242.096 -641.303C242.572 -453.792 245.186 -266.282 247.8 -84.9526C250.652 108.74 253.505 310.675 253.742 510.549C254.218 831.997 246.85 1281.2 210.01 1598.52C195.274 1724.22 176.498 1823.12 154.156 1893.18C133.954 1955 111.137 1992.09 88.082 1998.27C84.5168 2000.33 81.1895 2000.33 77.6243 2000.33C36.2687 1998.27 -4.13621 1915.85 -42.1644 1831.37C-87.0851 1732.46 -131.055 1623.25 -168.37 1530.53C-186.434 1485.19 -204.735 1439.86 -222.56 1394.53C-325.474 1136.96 -431.715 871.147 -537.243 706.302C-594.286 617.698 -646.337 566.184 -696.486 545.579C-753.053 522.913 -805.579 543.518 -857.631 605.335C-863.572 611.516 -869.752 619.759 -875.694 628.002C-898.273 656.849 -921.565 687.756 -944.145 687.756C-957.217 685.696 -969.814 675.394 -982.41 648.607Z" stroke="#8E4B9D" stroke-width="6" stroke-miterlimit="10"/>
<path d="M-410.8 -12808.9C-337.12 -12489.5 -271.522 -12058.9 -208.3 -11640.6C-59.2771 -10655.6 94.7369 -9639.76 230.212 -8498.22C299.138 -7919.2 353.566 -7385.51 396.585 -6864.19C421.541 -6559.23 443.407 -6252.21 461.233 -5951.37C480.485 -5625.8 495.696 -5294.05 506.867 -4966.42C516.136 -4686.18 525.406 -4319.4 514.235 -3962.93C508.293 -3771.29 496.409 -3583.78 478.346 -3385.97C462.184 -3208.76 442.457 -3041.86 423.443 -2881.13C409.658 -2763.68 395.397 -2642.11 382.562 -2518.47C316.013 -1877.64 279.173 -1041.05 281.788 -223.013C282.501 -23.1388 285.353 176.736 287.967 372.489C291.057 580.605 293.909 794.903 294.385 1009.2C294.86 1353.31 287.017 1835.49 247.563 2175.48C231.876 2311.47 211.673 2418.62 187.906 2492.8C166.277 2560.8 142.034 2597.89 117.316 2606.13C113.751 2606.13 109.948 2608.19 106.383 2608.19C61.9376 2606.13 18.6806 2517.53 -22.1997 2424.8C-69.9725 2317.66 -117.27 2200.2 -157.2 2101.3C-175.738 2055.97 -194.515 2008.57 -212.816 1961.18C-323.097 1683 -436.944 1396.59 -550.316 1219.38C-611.398 1124.59 -667.252 1066.9 -720.967 1046.29C-781.574 1023.62 -838.141 1044.23 -893.757 1112.23C-900.175 1120.47 -906.592 1128.71 -913.009 1136.96C-951.275 1186.41 -990.729 1237.92 -1027.57 1159.62C-1054.19 1101.93 -1072.97 998.898 -1083.19 848.477C-1091.5 726.904 -1094.83 578.544 -1092.93 395.155C-1091.5 250.915 -1086.99 90.1917 -1078.67 -113.804C-1057.99 -626.883 -1038.03 -1288.32 -1068.69 -1873.52C-1073.92 -1970.37 -1080.33 -2065.15 -1086.75 -2155.82C-1095.31 -2277.39 -1103.86 -2403.08 -1109.33 -2539.08C-1120.98 -2823.44 -1118.84 -3142.82 -1102.67 -3511.66C-1088.89 -3826.93 -1067.26 -4136.01 -1044.21 -4449.22C-912.058 -6262.51 -802.015 -8193.25 -717.64 -10185.8C-700.765 -10583.5 -684.603 -10991.5 -667.728 -11438.6C-661.548 -11603.5 -654.655 -11778.6 -646.574 -11945.5C-636.354 -12155.7 -625.421 -12320.6 -612.587 -12464.8C-598.564 -12623.5 -580.976 -12757.4 -561.724 -12854.2C-540.809 -12959.3 -517.992 -13017 -496.126 -13019.1C-495.413 -13019.1 -494.462 -13019.1 -493.749 -13019.1C-463.326 -13017 -434.805 -12911.9 -410.8 -12808.9ZM-1068.69 -1875.58C-1037.79 -1290.38 -1057.75 -626.883 -1078.67 -113.804C-1086.75 88.1311 -1091.27 248.855 -1092.93 393.095C-1094.83 576.484 -1091.74 724.844 -1083.42 844.356C-1073.2 992.716 -1054.43 1095.74 -1027.81 1153.44C-990.967 1231.74 -951.513 1180.23 -913.485 1130.77C-907.067 1122.53 -900.65 1114.29 -894.233 1106.05C-838.379 1038.05 -781.812 1017.44 -721.442 1040.11C-667.49 1060.71 -611.636 1118.41 -550.553 1213.2C-437.182 1390.4 -323.335 1676.82 -213.053 1955C-194.752 2000.33 -175.976 2047.72 -157.437 2095.12C-117.508 2196.08 -70.4479 2311.47 -22.6751 2418.62C18.2052 2509.29 61.4622 2597.89 105.908 2599.95C109.473 2599.95 113.276 2599.95 116.841 2597.89C141.559 2591.71 166.04 2552.56 187.431 2484.56C211.198 2410.38 231.401 2303.23 247.087 2169.29C286.541 1829.3 294.385 1349.19 293.909 1005.08C293.672 790.781 290.582 576.483 287.492 368.366C284.64 174.674 281.788 -27.2601 281.313 -227.134C278.936 -1045.18 315.538 -1881.76 382.325 -2524.66C395.159 -2648.29 409.42 -2769.86 423.443 -2887.32C442.457 -3048.04 462.184 -3214.94 478.346 -3392.15C496.409 -3589.96 508.293 -3777.48 514.235 -3969.11C525.406 -4323.52 516.136 -4690.3 506.867 -4970.54C495.934 -5298.17 480.485 -5629.92 461.233 -5955.49C443.407 -6256.33 421.779 -6563.35 396.585 -6868.31C353.566 -7389.63 299.138 -7925.38 230.212 -8502.34C94.4993 -9637.7 -59.5149 -10653.6 -208.538 -11638.5C-271.759 -12056.8 -337.12 -12487.5 -411.038 -12806.8C-435.043 -12909.9 -463.326 -13015 -493.986 -13017C-494.699 -13017 -495.65 -13017 -496.363 -13017C-518.229 -13015 -540.809 -12957.3 -561.724 -12852.2C-580.976 -12755.3 -598.564 -12621.4 -612.349 -12462.7C-625.184 -12318.5 -635.879 -12153.6 -646.099 -11943.5C-654.18 -11776.6 -661.073 -11601.4 -667.252 -11436.6C-683.89 -10991.5 -700.289 -10581.4 -717.164 -10183.8C-801.777 -8191.19 -911.821 -6262.51 -1044.44 -4447.16C-1067.26 -4133.95 -1089.13 -3824.87 -1102.91 -3509.6C-1118.84 -3140.76 -1120.98 -2823.44 -1109.57 -2539.08C-1104.1 -2405.14 -1095.31 -2279.45 -1086.99 -2157.88C-1080.33 -2067.21 -1073.92 -1972.43 -1068.69 -1875.58Z" fill="#8E4B9D"/>
<path d="M-1078.67 -113.804C-1086.99 90.1917 -1091.5 250.915 -1092.93 395.155C-1094.83 578.544 -1091.5 726.904 -1083.19 848.477C-1072.97 998.898 -1054.19 1101.93 -1027.57 1159.62C-990.729 1237.92 -951.275 1186.41 -913.009 1136.96C-906.592 1128.71 -900.175 1120.47 -893.757 1112.23C-838.141 1044.23 -781.574 1023.62 -720.967 1046.29C-667.252 1066.9 -611.398 1124.59 -550.316 1219.38C-436.944 1396.59 -323.097 1683 -212.816 1961.18C-194.515 2008.57 -175.738 2055.97 -157.2 2101.3C-117.27 2200.2 -69.9725 2317.66 -22.1997 2424.8C18.6806 2517.53 61.9376 2606.13 106.383 2608.19C109.948 2608.19 113.751 2606.13 117.316 2606.13C142.034 2597.89 166.277 2560.8 187.906 2492.8C211.673 2418.62 231.876 2311.47 247.563 2175.48C287.017 1835.49 294.86 1353.31 294.385 1009.2C293.909 794.903 291.057 580.605 287.967 372.489C285.353 176.736 282.501 -23.1388 281.788 -223.013C279.173 -1041.05 316.013 -1877.64 382.562 -2518.47C395.397 -2642.11 409.658 -2763.68 423.443 -2881.13C442.457 -3041.86 462.184 -3208.76 478.346 -3385.97C496.409 -3583.78 508.293 -3771.29 514.235 -3962.93C525.406 -4319.4 516.136 -4686.18 506.867 -4966.42C495.696 -5294.05 480.485 -5625.8 461.233 -5951.37C443.407 -6252.21 421.541 -6559.23 396.585 -6864.19C353.566 -7385.51 299.138 -7919.2 230.212 -8498.22C94.7369 -9639.76 -59.2771 -10655.6 -208.3 -11640.6C-271.522 -12058.9 -337.12 -12489.5 -410.8 -12808.9C-434.805 -12911.9 -463.326 -13017 -493.749 -13019.1C-494.462 -13019.1 -495.413 -13019.1 -496.126 -13019.1C-517.992 -13017 -540.809 -12959.3 -561.724 -12854.2C-580.976 -12757.4 -598.564 -12623.5 -612.587 -12464.8C-625.421 -12320.6 -636.354 -12155.7 -646.574 -11945.5C-654.655 -11778.6 -661.548 -11603.5 -667.728 -11438.6C-684.603 -10991.5 -700.765 -10583.5 -717.64 -10185.8C-802.015 -8193.25 -912.058 -6262.51 -1044.21 -4449.22C-1067.26 -4136.01 -1088.89 -3826.93 -1102.67 -3511.66C-1118.84 -3142.82 -1120.98 -2823.44 -1109.33 -2539.08C-1103.86 -2403.08 -1095.31 -2277.39 -1086.75 -2155.82C-1080.33 -2065.15 -1073.92 -1970.37 -1068.69 -1873.52M-1078.67 -113.804C-1057.99 -626.883 -1038.03 -1288.32 -1068.69 -1873.52M-1078.67 -113.804C-1057.75 -626.883 -1037.79 -1290.38 -1068.69 -1875.58C-1073.92 -1972.43 -1080.33 -2067.21 -1086.99 -2157.88C-1095.31 -2279.45 -1104.1 -2405.14 -1109.57 -2539.08C-1120.98 -2823.44 -1118.84 -3140.76 -1102.91 -3509.6C-1089.13 -3824.87 -1067.26 -4133.95 -1044.44 -4447.16C-911.821 -6262.51 -801.777 -8191.19 -717.164 -10183.8C-700.289 -10581.4 -683.89 -10991.5 -667.252 -11436.6C-661.073 -11601.4 -654.18 -11776.6 -646.099 -11943.5C-635.879 -12153.6 -625.184 -12318.5 -612.349 -12462.7C-598.564 -12621.4 -580.976 -12755.3 -561.724 -12852.2C-540.809 -12957.3 -518.229 -13015 -496.363 -13017C-495.65 -13017 -494.699 -13017 -493.986 -13017C-463.326 -13015 -435.043 -12909.9 -411.038 -12806.8C-337.12 -12487.5 -271.759 -12056.8 -208.538 -11638.5C-59.5149 -10653.6 94.4993 -9637.7 230.212 -8502.34C299.138 -7925.38 353.566 -7389.63 396.585 -6868.31C421.779 -6563.35 443.407 -6256.33 461.233 -5955.49C480.485 -5629.92 495.934 -5298.17 506.867 -4970.54C516.136 -4690.3 525.406 -4323.52 514.235 -3969.11C508.293 -3777.48 496.409 -3589.96 478.346 -3392.15C462.184 -3214.94 442.457 -3048.04 423.443 -2887.32C409.42 -2769.86 395.159 -2648.29 382.325 -2524.66C315.538 -1881.76 278.936 -1045.18 281.313 -227.134C281.788 -27.2601 284.64 174.674 287.492 368.366C290.582 576.483 293.672 790.781 293.909 1005.08C294.385 1349.19 286.541 1829.3 247.087 2169.29C231.401 2303.23 211.198 2410.38 187.431 2484.56C166.04 2552.56 141.559 2591.71 116.841 2597.89C113.276 2599.95 109.473 2599.95 105.908 2599.95C61.4622 2597.89 18.2052 2509.29 -22.6751 2418.62C-70.4479 2311.47 -117.508 2196.08 -157.437 2095.12C-175.976 2047.72 -194.752 2000.33 -213.053 1955C-323.335 1676.82 -437.182 1390.4 -550.553 1213.2C-611.636 1118.41 -667.49 1060.71 -721.442 1040.11C-781.812 1017.44 -838.379 1038.05 -894.233 1106.05C-900.65 1114.29 -907.067 1122.53 -913.485 1130.77C-951.513 1180.23 -990.967 1231.74 -1027.81 1153.44C-1054.43 1095.74 -1073.2 992.716 -1083.42 844.356C-1091.74 724.844 -1094.83 576.484 -1092.93 393.095C-1091.27 248.855 -1086.75 88.1311 -1078.67 -113.804ZM-1068.69 -1873.52H-1068.45" stroke="#8E4B9D" stroke-width="0.5" stroke-miterlimit="10"/>
<path d="M-610.21 -17247.3C-559.823 -17241.2 -504.682 -17183.5 -446.214 -17072.2C-402.719 -16989.8 -363.265 -16866.1 -329.039 -16707.5C-260.826 -16388.1 -195.703 -16009 -132.719 -15642.2C-126.302 -15605.1 -119.884 -15568 -113.467 -15528.8C-83.7577 -15355.8 -59.7525 -15217.7 -37.8863 -15094.1C-4.61167 -14904.5 29.3761 -14717 62.1754 -14535.7C87.8444 -14393.5 114.226 -14247.2 140.133 -14100.9C236.392 -13561 314.349 -13093.3 385.652 -12631.7C471.929 -12073.3 546.321 -11533.4 612.871 -10981.2C671.577 -10499 722.677 -9996.24 765.221 -9485.22C811.33 -8932.99 846.744 -8374.58 870.511 -7828.53C892.615 -7319.57 905.45 -6808.56 919.235 -6264.57C924.939 -6037.91 930.881 -5803 937.536 -5568.1C940.626 -5456.83 944.191 -5341.44 947.518 -5232.23C959.164 -4842.78 971.286 -4440.97 971.523 -4055.65C971.761 -3789.84 966.77 -3536.39 956.55 -3280.88C947.518 -3052.16 933.733 -2813.13 914.481 -2553.5C894.516 -2283.57 870.511 -2028.06 845.08 -1758.13L842.465 -1731.34C800.872 -1292.44 748.108 -707.243 710.793 -80.8333C692.492 226.19 678.944 529.092 670.388 815.51C660.881 1132.84 657.316 1448.1 659.693 1748.94C663.02 2158.99 677.281 2554.62 691.304 2935.82C699.147 3152.18 707.465 3376.78 713.17 3599.32C727.43 4133.01 732.184 4883.05 674.191 5416.74C651.849 5622.79 622.14 5781.46 586.013 5886.54C553.689 5981.33 517.325 6028.72 478.108 6030.78C476.445 6030.78 474.543 6030.78 472.879 6030.78C435.327 6028.72 394.209 5985.45 347.387 5898.91C320.291 5849.46 293.672 5791.76 268.953 5736.12C224.508 5637.22 179.112 5530.07 135.142 5429.1C46.2511 5220.98 -45.9673 5006.69 -137.235 4831.54C-291.249 4536.88 -422.921 4402.94 -564.339 4392.64C-565.289 4392.64 -566.478 4392.64 -567.428 4392.64C-648.238 4388.52 -722.393 4407.06 -794.409 4452.4C-876.645 4503.91 -953.652 4584.27 -1029.71 4701.72C-1037.55 4714.09 -1045.63 4726.45 -1053.24 4738.81C-1111.94 4831.54 -1172.31 4928.39 -1229.83 4850.08C-1283.07 4777.96 -1318.72 4598.7 -1338.92 4304.04C-1357.23 4036.16 -1360.08 3708.53 -1360.32 3424.18C-1360.79 3061.52 -1361.5 2707.1 -1368.87 2338.26C-1377.67 1901.42 -1393.83 1524.34 -1418.78 1186.41C-1446.59 807.267 -1465.13 391.036 -1483.19 -12.8338C-1484.86 -51.9844 -1486.52 -89.074 -1488.42 -128.225C-1493.65 -243.616 -1499.36 -363.129 -1504.58 -476.459L-1506.72 -521.792C-1530.49 -1022.51 -1549.74 -1438.74 -1562.58 -1873.52C-1569.71 -2114.6 -1574.22 -2337.14 -1576.36 -2555.56C-1578.5 -2796.65 -1577.79 -3027.43 -1573.99 -3256.15C-1561.86 -3962.92 -1517.18 -4649.09 -1470.83 -5285.8C-1387.89 -6423.23 -1301.61 -7653.39 -1233.16 -8943.29C-1170.17 -10134.3 -1122.88 -11354.1 -1084.85 -12388.5C-1079.14 -12541 -1073.44 -12697.6 -1067.97 -12848.1C-1038.03 -13657.9 -1007.13 -14496.5 -984.787 -15337.2L-983.837 -15374.3C-979.321 -15547.4 -974.567 -15724.6 -967.437 -15891.5C-959.356 -16081.1 -949.136 -16227.4 -936.064 -16342.8C-918.238 -16499.4 -896.847 -16598.3 -878.071 -16680.7C-841.469 -16841.4 -803.678 -16971.2 -765.412 -17070.1C-719.303 -17187.6 -668.678 -17247.3 -614.251 -17243.2C-612.825 -17247.3 -611.398 -17247.3 -610.21 -17247.3ZM-1053 4734.69C-1045.16 4722.33 -1037.31 4709.97 -1029.47 4697.6C-953.414 4580.15 -876.407 4499.79 -794.171 4448.28C-722.155 4402.94 -647.763 4384.4 -566.953 4388.52C-566.002 4388.52 -564.814 4388.52 -563.863 4388.52C-422.446 4396.76 -290.773 4532.76 -136.759 4827.42C-45.4919 5002.57 46.7263 5216.86 135.617 5424.98C179.587 5528.01 224.983 5633.09 269.429 5732C294.147 5787.64 320.767 5845.33 347.862 5894.79C394.684 5981.33 435.802 6024.6 473.355 6026.66C475.018 6026.66 476.92 6026.66 478.584 6026.66C517.563 6024.6 553.927 5977.21 586.251 5882.42C622.378 5777.34 651.849 5620.73 674.429 5414.68C732.184 4883.05 727.43 4133.01 713.407 3599.32C707.465 3376.78 699.385 3154.24 691.541 2937.88C677.756 2556.68 663.258 2161.05 659.93 1751C657.553 1450.16 661.119 1134.9 670.626 817.571C679.182 531.153 692.73 228.251 711.031 -78.7719C748.346 -705.182 800.872 -1290.38 842.703 -1729.28L845.317 -1756.07C870.749 -2026 894.992 -2281.51 914.719 -2551.44C933.733 -2811.07 947.518 -3048.04 956.55 -3276.76C966.77 -3532.27 971.523 -3785.72 971.286 -4051.53C971.048 -4434.79 958.926 -4838.66 947.28 -5226.05C943.953 -5337.32 940.626 -5450.65 937.298 -5561.92C930.643 -5798.88 924.701 -6031.73 918.997 -6258.39C905.212 -6800.31 892.139 -7313.39 870.273 -7820.29C846.506 -8366.34 811.092 -8924.75 765.221 -9476.98C722.677 -9988 671.577 -10490.8 612.871 -10972.9C546.084 -11525.2 471.691 -12065 385.652 -12623.5C314.349 -13085 236.392 -13552.8 140.133 -14092.6C114.226 -14238.9 87.8444 -14385.2 62.1754 -14527.4C29.3761 -14708.7 -4.61167 -14898.3 -37.8863 -15085.8C-59.7525 -15209.5 -83.7577 -15347.5 -113.467 -15520.6C-119.884 -15557.7 -126.302 -15594.8 -132.719 -15633.9C-195.703 -16000.7 -260.826 -16379.9 -329.039 -16699.2C-363.265 -16860 -402.481 -16981.5 -445.976 -17064C-504.206 -17173.2 -559.347 -17232.9 -609.735 -17239.1C-611.161 -17239.1 -612.349 -17239.1 -613.537 -17239.1C-667.728 -17241.2 -718.59 -17183.5 -764.462 -17066C-802.49 -16967.1 -840.518 -16837.3 -877.12 -16676.6C-895.897 -16596.2 -917.287 -16495.2 -935.113 -16338.6C-964.109 -16085.2 -973.617 -15722.5 -982.886 -15372.2L-983.837 -15335.1C-1005.94 -14492.4 -1037.08 -13655.8 -1067.02 -12843.9C-1072.49 -12693.5 -1078.43 -12536.9 -1083.9 -12384.4C-1122.16 -11354.1 -1169.46 -10134.3 -1232.45 -8943.29C-1300.9 -7653.39 -1387.17 -6423.23 -1470.12 -5283.74C-1516.47 -4649.09 -1561.15 -3962.92 -1573.27 -3256.15C-1577.31 -3027.43 -1578.03 -2798.71 -1575.65 -2555.56C-1573.51 -2339.2 -1569.23 -2116.66 -1562.1 -1875.58C-1549.27 -1440.8 -1530.02 -1024.57 -1506.25 -523.853L-1504.11 -478.52C-1498.64 -365.189 -1492.94 -245.677 -1487.95 -130.286C-1486.28 -91.1353 -1484.62 -54.0445 -1482.72 -14.8939C-1464.89 388.976 -1446.35 805.208 -1418.31 1182.29C-1393.35 1520.22 -1376.95 1897.3 -1368.4 2334.14C-1361.03 2702.98 -1360.08 3057.4 -1359.84 3420.06C-1359.6 3704.41 -1356.75 4032.04 -1338.45 4299.91C-1318.25 4594.57 -1282.83 4771.78 -1229.59 4843.9C-1215.57 4862.45 -1201.31 4870.69 -1187.05 4872.75C-1142.6 4876.87 -1097.21 4804.75 -1053 4734.69Z" fill="#8E4B9D"/>
<path d="M-1418.78 1186.41C-1393.83 1524.34 -1377.67 1901.42 -1368.87 2338.26C-1361.5 2707.1 -1360.79 3061.52 -1360.32 3424.18C-1360.08 3708.53 -1357.23 4036.16 -1338.92 4304.04C-1318.72 4598.7 -1283.07 4777.96 -1229.83 4850.08C-1172.31 4928.39 -1111.94 4831.54 -1053.24 4738.81C-1045.63 4726.45 -1037.55 4714.09 -1029.71 4701.72C-953.652 4584.27 -876.645 4503.91 -794.409 4452.4C-722.393 4407.06 -648.238 4388.52 -567.428 4392.64C-566.478 4392.64 -565.289 4392.64 -564.339 4392.64C-422.921 4402.94 -291.249 4536.88 -137.235 4831.54C-45.9673 5006.69 46.2511 5220.98 135.142 5429.1C179.112 5530.07 224.508 5637.22 268.953 5736.12C293.672 5791.76 320.291 5849.46 347.387 5898.91C394.209 5985.45 435.327 6028.72 472.879 6030.78C474.543 6030.78 476.445 6030.78 478.108 6030.78C517.325 6028.72 553.689 5981.33 586.013 5886.54C622.14 5781.46 651.849 5622.79 674.191 5416.74C732.184 4883.05 727.43 4133.01 713.17 3599.32C707.465 3376.78 699.147 3152.18 691.304 2935.82C677.281 2554.62 663.02 2158.99 659.693 1748.94C657.316 1448.1 660.881 1132.84 670.388 815.51C678.944 529.092 692.492 226.19 710.793 -80.8333C748.108 -707.243 800.872 -1292.44 842.465 -1731.34L845.08 -1758.13C870.511 -2028.06 894.516 -2283.57 914.481 -2553.5C933.733 -2813.13 947.518 -3052.16 956.55 -3280.88C966.77 -3536.39 971.761 -3789.84 971.523 -4055.65C971.286 -4440.97 959.164 -4842.78 947.518 -5232.23C944.191 -5341.44 940.626 -5456.83 937.536 -5568.1C930.881 -5803 924.939 -6037.91 919.235 -6264.57C905.45 -6808.56 892.615 -7319.57 870.511 -7828.53C846.744 -8374.58 811.33 -8932.99 765.221 -9485.22C722.677 -9996.24 671.577 -10499 612.871 -10981.2C546.321 -11533.4 471.929 -12073.3 385.652 -12631.7C314.349 -13093.3 236.392 -13561 140.133 -14100.9C114.226 -14247.2 87.8444 -14393.5 62.1754 -14535.7C29.3761 -14717 -4.61167 -14904.5 -37.8863 -15094.1C-59.7525 -15217.7 -83.7577 -15355.8 -113.467 -15528.8C-119.884 -15568 -126.302 -15605.1 -132.719 -15642.2C-195.703 -16009 -260.826 -16388.1 -329.039 -16707.5C-363.265 -16866.1 -402.719 -16989.8 -446.214 -17072.2C-504.682 -17183.5 -559.823 -17241.2 -610.21 -17247.3C-611.398 -17247.3 -612.825 -17247.3 -614.251 -17243.2C-668.678 -17247.3 -719.303 -17187.6 -765.412 -17070.1C-803.678 -16971.2 -841.469 -16841.4 -878.071 -16680.7C-896.847 -16598.3 -918.238 -16499.4 -936.064 -16342.8C-949.136 -16227.4 -959.356 -16081.1 -967.437 -15891.5C-974.567 -15724.6 -979.321 -15547.4 -983.837 -15374.3L-984.787 -15337.2C-1007.13 -14496.5 -1038.03 -13657.9 -1067.97 -12848.1C-1073.44 -12697.6 -1079.14 -12541 -1084.85 -12388.5C-1122.88 -11354.1 -1170.17 -10134.3 -1233.16 -8943.29C-1301.61 -7653.39 -1387.89 -6423.23 -1470.83 -5285.8C-1517.18 -4649.09 -1561.86 -3962.92 -1573.99 -3256.15C-1577.79 -3027.43 -1578.5 -2796.65 -1576.36 -2555.56C-1574.22 -2337.14 -1569.71 -2114.6 -1562.58 -1873.52C-1549.74 -1438.74 -1530.49 -1022.51 -1506.72 -521.792L-1504.58 -476.459C-1499.36 -363.129 -1493.65 -243.616 -1488.42 -128.225C-1486.52 -89.074 -1484.86 -51.9844 -1483.19 -12.8338C-1465.13 391.036 -1446.59 807.267 -1418.78 1186.41ZM-1418.78 1186.41H-1418.55M-1053 4734.69C-1045.16 4722.33 -1037.31 4709.97 -1029.47 4697.6C-953.414 4580.15 -876.407 4499.79 -794.171 4448.28C-722.155 4402.94 -647.763 4384.4 -566.953 4388.52C-566.002 4388.52 -564.814 4388.52 -563.863 4388.52C-422.446 4396.76 -290.773 4532.76 -136.759 4827.42C-45.4919 5002.57 46.7263 5216.86 135.617 5424.98C179.587 5528.01 224.983 5633.09 269.429 5732C294.147 5787.64 320.767 5845.33 347.862 5894.79C394.684 5981.33 435.802 6024.6 473.355 6026.66C475.018 6026.66 476.92 6026.66 478.584 6026.66C517.563 6024.6 553.927 5977.21 586.251 5882.42C622.378 5777.34 651.849 5620.73 674.429 5414.68C732.184 4883.05 727.43 4133.01 713.407 3599.32C707.465 3376.78 699.385 3154.24 691.541 2937.88C677.756 2556.68 663.258 2161.05 659.93 1751C657.553 1450.16 661.119 1134.9 670.626 817.571C679.182 531.153 692.73 228.251 711.031 -78.7719C748.346 -705.182 800.872 -1290.38 842.703 -1729.28L845.317 -1756.07C870.749 -2026 894.992 -2281.51 914.719 -2551.44C933.733 -2811.07 947.518 -3048.04 956.55 -3276.76C966.77 -3532.27 971.523 -3785.72 971.286 -4051.53C971.048 -4434.79 958.926 -4838.66 947.28 -5226.05C943.953 -5337.32 940.626 -5450.65 937.298 -5561.92C930.643 -5798.88 924.701 -6031.73 918.997 -6258.39C905.212 -6800.31 892.139 -7313.39 870.273 -7820.29C846.506 -8366.34 811.092 -8924.75 765.221 -9476.98C722.677 -9988 671.577 -10490.8 612.871 -10972.9C546.084 -11525.2 471.691 -12065 385.652 -12623.5C314.349 -13085 236.392 -13552.8 140.133 -14092.6C114.226 -14238.9 87.8444 -14385.2 62.1754 -14527.4C29.3761 -14708.7 -4.61167 -14898.3 -37.8863 -15085.8C-59.7525 -15209.5 -83.7577 -15347.5 -113.467 -15520.6C-119.884 -15557.7 -126.302 -15594.8 -132.719 -15633.9C-195.703 -16000.7 -260.826 -16379.9 -329.039 -16699.2C-363.265 -16860 -402.481 -16981.5 -445.976 -17064C-504.206 -17173.2 -559.347 -17232.9 -609.735 -17239.1C-611.161 -17239.1 -612.349 -17239.1 -613.537 -17239.1C-667.728 -17241.2 -718.59 -17183.5 -764.462 -17066C-802.49 -16967.1 -840.518 -16837.3 -877.12 -16676.6C-895.897 -16596.2 -917.287 -16495.2 -935.113 -16338.6C-964.109 -16085.2 -973.617 -15722.5 -982.886 -15372.2L-983.837 -15335.1C-1005.94 -14492.4 -1037.08 -13655.8 -1067.02 -12843.9C-1072.49 -12693.5 -1078.43 -12536.9 -1083.9 -12384.4C-1122.16 -11354.1 -1169.46 -10134.3 -1232.45 -8943.29C-1300.9 -7653.39 -1387.17 -6423.23 -1470.12 -5283.74C-1516.47 -4649.09 -1561.15 -3962.92 -1573.27 -3256.15C-1577.31 -3027.43 -1578.03 -2798.71 -1575.65 -2555.56C-1573.51 -2339.2 -1569.23 -2116.66 -1562.1 -1875.58C-1549.27 -1440.8 -1530.02 -1024.57 -1506.25 -523.853L-1504.11 -478.52C-1498.64 -365.189 -1492.94 -245.677 -1487.95 -130.286C-1486.28 -91.1353 -1484.62 -54.0445 -1482.72 -14.8939C-1464.89 388.976 -1446.35 805.208 -1418.31 1182.29C-1393.35 1520.22 -1376.95 1897.3 -1368.4 2334.14C-1361.03 2702.98 -1360.08 3057.4 -1359.84 3420.06C-1359.6 3704.41 -1356.75 4032.04 -1338.45 4299.91C-1318.25 4594.57 -1282.83 4771.78 -1229.59 4843.9C-1215.57 4862.45 -1201.31 4870.69 -1187.05 4872.75C-1142.6 4876.87 -1097.21 4804.75 -1053 4734.69Z" stroke="#8E4B9D" stroke-width="3" stroke-miterlimit="10"/>
<path d="M-1021.39 -18996.8C-959.118 -18953.5 -895.421 -18871.1 -831.486 -18751.6C-771.354 -18640.3 -709.321 -18491.9 -647.287 -18314.7C-535.104 -17991.2 -420.782 -17564.7 -297.428 -17010.4C-258.212 -16833.2 -220.184 -16660.1 -184.77 -16460.2C-170.509 -16379.9 -156.011 -16297.4 -141.988 -16219.1C-82.5694 -15883.3 -21.0112 -15535 43.6366 -15242.4C70.494 -15120.8 99.0151 -15003.4 130.388 -14883.9C176.735 -14706.7 224.983 -14546 271.568 -14389.4C293.909 -14315.2 316.964 -14236.9 339.543 -14158.6C450.3 -13777.4 544.895 -13394.1 628.557 -12988.2C676.33 -12757.4 721.251 -12514.2 762.131 -12267C806.101 -12001.2 846.744 -11718.9 883.584 -11430.4C954.649 -10874 1013.12 -10225 1052.1 -9557.34C1072.54 -9209.11 1087.51 -8854.69 1097.02 -8506.46C1107 -8141.74 1110.8 -7781.14 1108.43 -7432.91C1106.05 -7086.73 1097.49 -6736.44 1089.41 -6398.51C1076.1 -5848.34 1062.32 -5279.62 1073.72 -4690.3C1084.42 -4125.71 1118.88 -3612.63 1152.16 -3116.04C1157.39 -3037.74 1162.85 -2957.37 1168.08 -2879.07C1191.14 -2526.72 1209.2 -2230 1221.56 -1927.09C1235.58 -1576.8 1240.57 -1251.23 1236.53 -931.845C1233.92 -729.91 1227.74 -532.097 1217.52 -323.98C1208.49 -138.53 1196.36 51.0407 1180.44 255.036C1149.31 654.784 1108.9 1052.47 1069.68 1437.8C1022.15 1905.54 972.95 2389.77 938.724 2890.49C920.423 3160.42 907.589 3409.75 899.983 3659.08C891.427 3937.26 889.288 4205.13 893.566 4475.06C903.786 5107.65 949.895 5651.64 994.816 6179.14C1008.36 6339.86 1022.39 6504.71 1035.22 6669.56C1056.61 6945.67 1083.71 7370.15 1092.26 7831.71C1100.82 8280.91 1089.89 8668.3 1060.18 8979.44C1035.93 9232.89 1001.95 9416.28 958.689 9527.55C921.136 9624.39 876.929 9663.55 827.017 9647.06C780.432 9632.64 729.807 9570.82 672.29 9457.49C642.342 9397.74 613.584 9337.98 579.121 9265.86L562.721 9230.83C408.944 8907.32 249.702 8573.51 89.5081 8437.52C-5.32465 8357.15 -88.0359 8365.4 -170.747 8460.18C-241.575 8542.6 -314.066 8690.96 -413.414 8952.65C-623.282 9509.01 -787.041 9902.57 -944.145 10230.2C-1024 10397.1 -1101.96 10547.5 -1179.92 10564C-1236.96 10576.4 -1288.77 10526.9 -1337.97 10411.5C-1377.19 10320.9 -1415.46 10189 -1461.57 9982.93C-1503.4 9797.48 -1545.23 9558.46 -1585.87 9274.1C-1627.23 8983.56 -1667.63 8643.57 -1706.13 8262.37C-1733.7 7988.31 -1755.81 7662.75 -1773.87 7263C-1790.03 6906.52 -1801.44 6527.38 -1812.37 6162.66C-1819.74 5921.57 -1827.11 5670.19 -1835.9 5429.1C-1845.65 5161.23 -1858.01 4885.11 -1873.7 4588.39C-1906.26 3970.22 -1947.14 3364.42 -1986.83 2779.22C-2028.18 2171.36 -2070.73 1540.83 -2103.05 906.173C-2120.4 564.12 -2133.48 248.855 -2142.98 -60.2292C-2153.68 -406.403 -2159.62 -736.092 -2161.28 -1065.78C-2165.09 -1770.49 -2148.45 -2510.23 -2110.66 -3330.34C-2074.77 -4107.17 -2024.62 -4848.97 -1980.41 -5471.25C-1975.18 -5545.43 -1969.95 -5619.62 -1964.73 -5691.73C-1922.18 -6287.24 -1878.21 -6905.4 -1839.47 -7525.63C-1795.74 -8222.1 -1763.65 -8844.39 -1740.83 -9431.65C-1721.11 -9942.67 -1705.42 -10507.3 -1692.59 -11158.4C-1681.18 -11739.5 -1673.33 -12332.9 -1665.49 -12907.8C-1664.07 -13021.1 -1662.4 -13140.7 -1660.74 -13256C-1652.18 -13882.5 -1641.49 -14521.2 -1631.27 -15139.4C-1623.9 -15580.4 -1616.29 -16037.8 -1609.4 -16489.1C-1603.7 -16860 -1596.33 -17288.6 -1578.98 -17675.9C-1559.73 -18102.5 -1531.44 -18411.6 -1492.7 -18617.6C-1470.6 -18735.1 -1444.69 -18823.7 -1413.32 -18885.5C-1383.37 -18945.2 -1352.95 -18974.1 -1327.04 -18994.7C-1270.47 -19040 -1213.19 -19060.6 -1155.91 -19056.5C-1111.23 -19046.2 -1066.31 -19029.7 -1021.39 -18996.8ZM-1180.16 10566.1C-1102.2 10549.6 -1024.24 10399.2 -944.62 10232.3C-787.516 9904.63 -623.757 9511.07 -413.89 8954.71C-314.779 8690.96 -242.05 8544.66 -171.222 8462.24C-88.5113 8365.39 -5.80003 8359.21 89.0327 8439.58C249.464 8573.51 408.707 8909.38 562.483 9232.89L578.883 9267.92C613.346 9340.04 642.105 9399.8 672.052 9459.55C729.57 9572.88 780.195 9634.7 826.779 9649.12C876.453 9665.61 920.661 9624.4 958.214 9529.61C1001.47 9418.34 1035.46 9234.95 1059.7 8983.56C1089.41 8672.42 1100.11 8287.09 1091.79 7837.89C1082.99 7376.33 1055.9 6951.85 1034.75 6675.74C1022.15 6510.89 1007.89 6346.05 994.341 6185.32C949.658 5657.82 903.311 5111.77 893.091 4481.24C888.813 4211.31 890.951 3943.44 899.508 3665.26C907.113 3417.99 919.948 3166.61 938.249 2896.67C972.474 2395.96 1021.67 1913.79 1069.21 1443.98C1108.19 1058.65 1148.59 660.967 1179.97 261.219C1195.89 57.2234 1208.01 -130.288 1217.04 -317.799C1227.26 -525.915 1233.44 -723.729 1236.06 -925.664C1240.1 -1245.05 1235.34 -1570.62 1221.08 -1920.91C1208.72 -2225.88 1190.9 -2520.54 1167.84 -2872.89C1162.62 -2951.19 1157.15 -3033.61 1151.92 -3109.86C1118.64 -3606.45 1084.18 -4119.53 1073.49 -4684.12C1062.08 -5273.44 1075.86 -5842.16 1089.17 -6392.32C1097.25 -6730.26 1105.81 -7078.49 1108.19 -7426.73C1110.56 -7774.96 1106.76 -8135.56 1096.78 -8500.28C1087.27 -8848.51 1072.06 -9202.93 1051.86 -9551.16C1012.88 -10218.8 954.649 -10867.9 883.346 -11424.2C846.744 -11712.7 805.863 -11995 762.131 -12260.8C721.251 -12508.1 676.33 -12751.2 628.557 -12982C544.895 -13387.9 450.3 -13771.2 339.543 -14152.4C316.964 -14230.7 293.909 -14306.9 271.568 -14383.2C224.983 -14539.8 176.735 -14700.5 130.388 -14877.7C98.7775 -14997.2 70.4939 -15114.7 43.3989 -15236.2C-21.4867 -15528.8 -82.807 -15877.1 -142.226 -16215C-156.249 -16293.3 -170.747 -16375.7 -185.008 -16456.1C-220.421 -16653.9 -258.45 -16829.1 -297.666 -17006.3C-420.782 -17560.6 -535.342 -17989.1 -647.525 -18310.6C-709.558 -18489.9 -771.592 -18636.2 -831.486 -18747.4C-895.183 -18866.9 -959.118 -18949.4 -1021.15 -18992.6C-1123.35 -19064.8 -1226.27 -19060.6 -1327.28 -18982.3C-1353.18 -18961.7 -1383.61 -18932.9 -1413.55 -18873.1C-1444.93 -18811.3 -1470.83 -18722.7 -1492.94 -18605.3C-1531.68 -18399.2 -1559.96 -18092.2 -1579.21 -17665.6C-1596.57 -17278.3 -1604.17 -16849.7 -1609.64 -16478.8C-1616.53 -16027.5 -1624.14 -15572.1 -1631.5 -15129.1C-1641.72 -14510.9 -1652.42 -13872.2 -1660.98 -13245.7C-1662.64 -13130.4 -1664.07 -13010.8 -1665.73 -12897.5C-1673.33 -12322.6 -1681.42 -11729.2 -1692.82 -11148.1C-1705.66 -10497 -1721.34 -9932.36 -1741.07 -9421.35C-1763.89 -8836.15 -1795.98 -8213.86 -1839.71 -7517.39C-1878.45 -6897.16 -1922.42 -6281.05 -1964.96 -5683.49C-1970.19 -5609.31 -1975.42 -5535.13 -1980.65 -5463.01C-2024.86 -4840.72 -2075.01 -4098.92 -2110.9 -3322.09C-2148.69 -2501.99 -2165.32 -1762.25 -2161.52 -1059.6C-2159.86 -729.911 -2153.92 -400.222 -2143.22 -54.0478C-2133.71 255.036 -2120.64 570.302 -2103.29 912.355C-2070.97 1547.01 -2028.42 2175.48 -1987.07 2785.4C-1947.37 3370.6 -1906.26 3976.41 -1873.93 4594.57C-1858.25 4893.35 -1845.89 5167.41 -1836.14 5435.28C-1827.35 5676.37 -1819.74 5925.69 -1812.61 6168.84C-1801.68 6535.62 -1790.03 6914.76 -1774.11 7269.18C-1756.05 7668.93 -1733.94 7994.49 -1706.37 8268.55C-1668.11 8647.69 -1627.7 8987.68 -1586.35 9278.22C-1545.7 9562.58 -1503.87 9801.6 -1462.28 9987.05C-1416.17 10191 -1377.9 10322.9 -1338.69 10415.7C-1295.67 10516.6 -1250.75 10566.1 -1202.02 10568.1C-1194.18 10568.1 -1187.29 10568.1 -1180.16 10566.1Z" fill="#8E4B9D"/>
<path d="M-1706.13 8262.37C-1667.63 8643.57 -1627.23 8983.56 -1585.87 9274.1C-1545.23 9558.46 -1503.4 9797.48 -1461.57 9982.93C-1415.46 10189 -1377.19 10320.9 -1337.97 10411.5C-1288.77 10526.9 -1236.96 10576.4 -1179.92 10564C-1101.96 10547.5 -1024 10397.1 -944.145 10230.2C-787.041 9902.57 -623.282 9509.01 -413.414 8952.65C-314.066 8690.96 -241.575 8542.6 -170.747 8460.18C-88.0359 8365.4 -5.32465 8357.15 89.5081 8437.52C249.702 8573.51 408.944 8907.32 562.721 9230.83L579.121 9265.86C613.584 9337.98 642.342 9397.74 672.29 9457.49C729.807 9570.82 780.432 9632.64 827.017 9647.06C876.929 9663.55 921.136 9624.39 958.689 9527.55C1001.95 9416.28 1035.93 9232.89 1060.18 8979.44C1089.89 8668.3 1100.82 8280.91 1092.26 7831.71C1083.71 7370.15 1056.61 6945.67 1035.22 6669.56C1022.39 6504.71 1008.36 6339.86 994.816 6179.14C949.895 5651.64 903.786 5107.65 893.566 4475.06C889.288 4205.13 891.427 3937.26 899.983 3659.08C907.589 3409.75 920.423 3160.42 938.724 2890.49C972.95 2389.77 1022.15 1905.54 1069.68 1437.8C1108.9 1052.47 1149.31 654.784 1180.44 255.036C1196.36 51.0407 1208.49 -138.53 1217.52 -323.98C1227.74 -532.097 1233.92 -729.91 1236.53 -931.845C1240.57 -1251.23 1235.58 -1576.8 1221.56 -1927.09C1209.2 -2230 1191.14 -2526.72 1168.08 -2879.07C1162.85 -2957.37 1157.39 -3037.74 1152.16 -3116.04C1118.88 -3612.63 1084.42 -4125.71 1073.72 -4690.3C1062.32 -5279.62 1076.1 -5848.34 1089.41 -6398.51C1097.49 -6736.44 1106.05 -7086.73 1108.43 -7432.91C1110.8 -7781.14 1107 -8141.74 1097.02 -8506.46C1087.51 -8854.69 1072.54 -9209.11 1052.1 -9557.34C1013.12 -10225 954.649 -10874 883.584 -11430.4C846.744 -11718.9 806.101 -12001.2 762.131 -12267C721.251 -12514.2 676.33 -12757.4 628.557 -12988.2C544.895 -13394.1 450.3 -13777.4 339.543 -14158.6C316.964 -14236.9 293.909 -14315.2 271.568 -14389.4C224.983 -14546 176.735 -14706.7 130.388 -14883.9C99.0151 -15003.4 70.494 -15120.8 43.6366 -15242.4C-21.0112 -15535 -82.5694 -15883.3 -141.988 -16219.1C-156.011 -16297.4 -170.509 -16379.9 -184.77 -16460.2C-220.184 -16660.1 -258.212 -16833.2 -297.428 -17010.4C-420.782 -17564.7 -535.104 -17991.2 -647.287 -18314.7C-709.321 -18491.9 -771.354 -18640.3 -831.486 -18751.6C-895.421 -18871.1 -959.118 -18953.5 -1021.39 -18996.8C-1066.31 -19029.7 -1111.23 -19046.2 -1155.91 -19056.5C-1213.19 -19060.6 -1270.47 -19040 -1327.04 -18994.7C-1352.95 -18974.1 -1383.37 -18945.2 -1413.32 -18885.5C-1444.69 -18823.7 -1470.6 -18735.1 -1492.7 -18617.6C-1531.44 -18411.6 -1559.73 -18102.5 -1578.98 -17675.9C-1596.33 -17288.6 -1603.7 -16860 -1609.4 -16489.1C-1616.29 -16037.8 -1623.9 -15580.4 -1631.27 -15139.4C-1641.49 -14521.2 -1652.18 -13882.5 -1660.74 -13256C-1662.4 -13140.7 -1664.07 -13021.1 -1665.49 -12907.8C-1673.33 -12332.9 -1681.18 -11739.5 -1692.59 -11158.4C-1705.42 -10507.3 -1721.11 -9942.67 -1740.83 -9431.65C-1763.65 -8844.39 -1795.74 -8222.1 -1839.47 -7525.63C-1878.21 -6905.4 -1922.18 -6287.24 -1964.73 -5691.73C-1969.95 -5619.62 -1975.18 -5545.43 -1980.41 -5471.25C-2024.62 -4848.97 -2074.77 -4107.17 -2110.66 -3330.34C-2148.45 -2510.23 -2165.09 -1770.49 -2161.28 -1065.78C-2159.62 -736.092 -2153.68 -406.403 -2142.98 -60.2292C-2133.48 248.855 -2120.4 564.12 -2103.05 906.173C-2070.73 1540.83 -2028.18 2171.36 -1986.83 2779.22C-1947.14 3364.42 -1906.26 3970.22 -1873.7 4588.39C-1858.01 4885.11 -1845.65 5161.23 -1835.9 5429.1C-1827.11 5670.19 -1819.74 5921.57 -1812.37 6162.66C-1801.44 6527.38 -1790.03 6906.52 -1773.87 7263C-1755.81 7662.75 -1733.7 7988.31 -1706.13 8262.37ZM-1706.13 8262.37H-1705.9M-1180.16 10566.1C-1102.2 10549.6 -1024.24 10399.2 -944.62 10232.3C-787.516 9904.63 -623.757 9511.07 -413.89 8954.71C-314.779 8690.96 -242.05 8544.66 -171.222 8462.24C-88.5113 8365.39 -5.80003 8359.21 89.0327 8439.58C249.464 8573.51 408.707 8909.38 562.483 9232.89L578.883 9267.92C613.346 9340.04 642.105 9399.8 672.052 9459.55C729.57 9572.88 780.195 9634.7 826.779 9649.12C876.453 9665.61 920.661 9624.4 958.214 9529.61C1001.47 9418.34 1035.46 9234.95 1059.7 8983.56C1089.41 8672.42 1100.11 8287.09 1091.79 7837.89C1082.99 7376.33 1055.9 6951.85 1034.75 6675.74C1022.15 6510.89 1007.89 6346.05 994.341 6185.32C949.658 5657.82 903.311 5111.77 893.091 4481.24C888.813 4211.31 890.951 3943.44 899.508 3665.26C907.113 3417.99 919.948 3166.61 938.249 2896.67C972.474 2395.96 1021.67 1913.79 1069.21 1443.98C1108.19 1058.65 1148.59 660.967 1179.97 261.219C1195.89 57.2234 1208.01 -130.288 1217.04 -317.799C1227.26 -525.915 1233.44 -723.729 1236.06 -925.664C1240.1 -1245.05 1235.34 -1570.62 1221.08 -1920.91C1208.72 -2225.88 1190.9 -2520.54 1167.84 -2872.89C1162.62 -2951.19 1157.15 -3033.61 1151.92 -3109.86C1118.64 -3606.45 1084.18 -4119.53 1073.49 -4684.12C1062.08 -5273.44 1075.86 -5842.16 1089.17 -6392.32C1097.25 -6730.26 1105.81 -7078.49 1108.19 -7426.73C1110.56 -7774.96 1106.76 -8135.56 1096.78 -8500.28C1087.27 -8848.51 1072.06 -9202.93 1051.86 -9551.16C1012.88 -10218.8 954.649 -10867.9 883.346 -11424.2C846.744 -11712.7 805.863 -11995 762.131 -12260.8C721.251 -12508.1 676.33 -12751.2 628.557 -12982C544.895 -13387.9 450.3 -13771.2 339.543 -14152.4C316.964 -14230.7 293.909 -14306.9 271.568 -14383.2C224.983 -14539.8 176.735 -14700.5 130.388 -14877.7C98.7775 -14997.2 70.4939 -15114.7 43.3989 -15236.2C-21.4867 -15528.8 -82.807 -15877.1 -142.226 -16215C-156.249 -16293.3 -170.747 -16375.7 -185.008 -16456.1C-220.421 -16653.9 -258.45 -16829.1 -297.666 -17006.3C-420.782 -17560.6 -535.342 -17989.1 -647.525 -18310.6C-709.558 -18489.9 -771.592 -18636.2 -831.486 -18747.4C-895.183 -18866.9 -959.118 -18949.4 -1021.15 -18992.6C-1123.35 -19064.8 -1226.27 -19060.6 -1327.28 -18982.3C-1353.18 -18961.7 -1383.61 -18932.9 -1413.55 -18873.1C-1444.93 -18811.3 -1470.83 -18722.7 -1492.94 -18605.3C-1531.68 -18399.2 -1559.96 -18092.2 -1579.21 -17665.6C-1596.57 -17278.3 -1604.17 -16849.7 -1609.64 -16478.8C-1616.53 -16027.5 -1624.14 -15572.1 -1631.5 -15129.1C-1641.72 -14510.9 -1652.42 -13872.2 -1660.98 -13245.7C-1662.64 -13130.4 -1664.07 -13010.8 -1665.73 -12897.5C-1673.33 -12322.6 -1681.42 -11729.2 -1692.82 -11148.1C-1705.66 -10497 -1721.34 -9932.36 -1741.07 -9421.35C-1763.89 -8836.15 -1795.98 -8213.86 -1839.71 -7517.39C-1878.45 -6897.16 -1922.42 -6281.05 -1964.96 -5683.49C-1970.19 -5609.31 -1975.42 -5535.13 -1980.65 -5463.01C-2024.86 -4840.72 -2075.01 -4098.92 -2110.9 -3322.09C-2148.69 -2501.99 -2165.32 -1762.25 -2161.52 -1059.6C-2159.86 -729.911 -2153.92 -400.222 -2143.22 -54.0478C-2133.71 255.036 -2120.64 570.302 -2103.29 912.355C-2070.97 1547.01 -2028.42 2175.48 -1987.07 2785.4C-1947.37 3370.6 -1906.26 3976.41 -1873.93 4594.57C-1858.25 4893.35 -1845.89 5167.41 -1836.14 5435.28C-1827.35 5676.37 -1819.74 5925.69 -1812.61 6168.84C-1801.68 6535.62 -1790.03 6914.76 -1774.11 7269.18C-1756.05 7668.93 -1733.94 7994.49 -1706.37 8268.55C-1668.11 8647.69 -1627.7 8987.68 -1586.35 9278.22C-1545.7 9562.58 -1503.87 9801.6 -1462.28 9987.05C-1416.17 10191 -1377.9 10322.9 -1338.69 10415.7C-1295.67 10516.6 -1250.75 10566.1 -1202.02 10568.1C-1194.18 10568.1 -1187.29 10568.1 -1180.16 10566.1Z" stroke="#8E4B9D" stroke-width="0.5" stroke-miterlimit="10"/>
<path d="M-1045.63 -19351.2C-799.4 -19147.2 -549.127 -18430.1 -280.791 -17162.9C-242.287 -16981.5 -204.734 -16800.2 -168.37 -16594.1C-157.912 -16534.4 -147.692 -16474.6 -137.235 -16416.9C-74.0127 -16054.3 -8.65185 -15681.3 61.2249 -15372.2C88.3199 -15252.7 117.079 -15137.3 149.165 -15021.9C196.463 -14848.9 245.662 -14694.3 293.197 -14541.8C315.538 -14471.8 338.593 -14397.6 361.41 -14323.4C604.79 -13528 779.957 -12672.9 912.818 -11632.3C1066.36 -10435.1 1149.54 -8904.14 1134.81 -7540.05C1131 -7191.82 1121.02 -6841.52 1111.51 -6501.53C1095.35 -5936.94 1078.72 -5353.8 1089.89 -4752.12C1100.82 -4154.56 1139.56 -3614.69 1177.11 -3093.37C1181.39 -3033.61 1185.67 -2973.86 1189.95 -2914.1C1237.96 -2242.36 1277.18 -1626.25 1271 -915.358C1267.67 -523.851 1249.6 -122.043 1216.33 312.735C1183.53 739.27 1140.04 1159.62 1097.73 1567.62C1000.76 2503.11 900.697 3471.57 919.473 4596.64C930.168 5245.71 979.843 5800 1027.62 6337.81C1041.64 6496.47 1056.37 6659.26 1069.45 6822.04C1092.26 7102.28 1121.5 7534.99 1131.72 8008.92C1141.7 8472.55 1131.24 8870.23 1100.82 9193.74C1054.95 9675.91 972.712 9910.82 862.668 9871.67C815.371 9855.18 763.795 9791.3 705.327 9675.91C673.241 9612.04 639.966 9544.04 610.732 9482.22L603.364 9465.73C443.883 9131.92 279.174 8787.81 113.038 8662.12C-85.1835 8511.7 -219.233 8761.03 -397.014 9274.1C-608.784 9886.09 -774.682 10308.5 -934.4 10648.5C-1010.69 10811.3 -1091.98 10972 -1173.98 11000.9C-1305.41 11048.2 -1394.54 10790.7 -1471.31 10504.3C-1568.28 10143.7 -1659.55 9566.7 -1734.89 8833.14C-1800.49 8198.49 -1823.78 7399 -1846.6 6626.29C-1854.21 6368.72 -1862.05 6100.84 -1871.32 5843.27C-1881.54 5560.98 -1894.61 5270.44 -1911.01 4959.29C-1945.95 4295.79 -1990.87 3646.72 -2034.36 3018.25C-2121.83 1753.07 -2212.15 446.671 -2220.94 -989.538C-2225.69 -1733.4 -2208.58 -2514.35 -2169.13 -3379.79C-2131.57 -4199.89 -2078.81 -4980.84 -2032.23 -5636.1C-2026.28 -5720.58 -2020.34 -5805.06 -2014.16 -5889.55C-1929.31 -7082.61 -1841.37 -8316.88 -1792.65 -9625.34C-1750.34 -10758.6 -1737.03 -11945.5 -1723.96 -13091.2C-1722.53 -13223.1 -1721.11 -13352.9 -1719.44 -13484.8C-1710.89 -14222.4 -1699.48 -14974.5 -1688.55 -15699.9C-1683.32 -16041.9 -1678.09 -16396.3 -1673.1 -16746.6C-1660.98 -17585.3 -1640.54 -18518.7 -1548.79 -18994.7C-1497.45 -19262.6 -1433.28 -19336.8 -1371.49 -19378C-1319.91 -19413 -1267.62 -19427.4 -1215.33 -19425.4C-1158.77 -19423.3 -1102.2 -19398.6 -1045.63 -19351.2ZM-1174.21 10976.1C-1092.45 10947.3 -1011.41 10786.6 -935.35 10623.8C-775.632 10283.8 -609.972 9861.36 -398.203 9249.38C-219.946 8734.24 -85.6589 8484.91 113.038 8637.39C279.411 8765.15 444.359 9109.26 603.839 9443.07L611.207 9457.49C640.441 9519.31 673.716 9587.31 705.802 9651.18C764.033 9766.58 815.371 9830.45 862.668 9846.94C938.487 9873.73 1041.16 9778.94 1098.21 9179.32C1123.87 8905.26 1172.36 8130.49 1066.59 6834.4C1053.28 6673.68 1038.79 6508.83 1024.76 6352.23C976.753 5812.36 926.841 5253.95 915.908 4600.76C897.131 3465.39 997.668 2492.81 1094.88 1553.19C1136.95 1147.26 1180.44 726.908 1213.24 300.372C1246.28 -132.345 1264.1 -530.034 1267.43 -917.419C1273.61 -1622.13 1234.63 -2234.12 1186.86 -2901.74C1182.58 -2961.49 1178.3 -3021.25 1174.02 -3081.01C1136.23 -3604.39 1097.25 -4146.31 1086.32 -4750.06C1075.15 -5355.86 1091.79 -5943.12 1107.95 -6507.71C1117.69 -6845.65 1127.44 -7195.94 1131.24 -7542.11C1145.74 -8900.02 1063.03 -10422.8 910.204 -11615.8C777.58 -12654.4 602.651 -13509.5 359.746 -14302.8C337.167 -14377 314.112 -14451.2 291.77 -14521.2C244.235 -14671.6 194.799 -14828.2 147.501 -15001.3C115.415 -15118.8 86.4186 -15234.2 59.3235 -15353.7C-10.5532 -15662.8 -75.9141 -16037.8 -139.374 -16398.4C-149.831 -16458.2 -160.051 -16517.9 -170.509 -16575.6C-206.636 -16781.7 -244.189 -16960.9 -282.692 -17142.3C-550.791 -18407.4 -800.351 -19122.5 -1046.35 -19326.4C-1154.73 -19417.1 -1264.29 -19425.4 -1371.49 -19353.2C-1432.81 -19312 -1496.5 -19237.8 -1547.13 -18974.1C-1637.68 -18504.3 -1658.12 -17577 -1670.01 -16742.5C-1675 -16394.3 -1680.46 -16039.9 -1685.46 -15695.7C-1696.39 -14968.4 -1707.8 -14218.3 -1716.35 -13480.6C-1717.78 -13348.8 -1719.44 -13219 -1720.87 -13087.1C-1733.7 -11941.4 -1747.01 -10754.5 -1789.56 -9619.16C-1838.52 -8308.64 -1926.46 -7072.31 -2011.55 -5877.18C-2017.49 -5792.7 -2023.67 -5708.22 -2029.61 -5623.73C-2133.48 -4160.74 -2228.07 -2588.53 -2217.85 -989.538C-2209.06 440.489 -2118.98 1746.88 -2031.51 3007.95C-1988.02 3636.42 -1943.1 4285.49 -1908.16 4951.05C-1891.52 5264.26 -1878.45 5554.79 -1868.23 5839.15C-1858.96 6096.72 -1851.12 6364.59 -1843.51 6622.16C-1820.93 7390.75 -1797.64 8186.13 -1732.52 8818.72C-1657.41 9548.16 -1566.62 10123.1 -1470.12 10483.7C-1400.72 10741.2 -1321.1 10976.1 -1209.15 10982.3C-1197.74 10982.3 -1186.1 10982.3 -1174.21 10976.1Z" fill="#8E4B9D"/>
<path d="M-1070.59 -19682.9C-1000.24 -19617 -928.696 -19509.8 -857.63 -19365.6C-789.655 -19227.5 -720.254 -19050.3 -651.803 -18840.2C-524.171 -18448.6 -394.162 -17929.4 -265.817 -17296.8C-231.592 -17127.8 -191.662 -16928 -154.11 -16709.5C-147.455 -16670.4 -140.8 -16631.2 -133.907 -16592.1C-66.8824 -16204.7 2.28129 -15802.9 76.9115 -15481.4C104.244 -15364 133.478 -15250.7 166.04 -15137.3C214.288 -14968.4 264.438 -14820 312.924 -14673.7C335.503 -14605.7 358.557 -14535.6 381.374 -14465.6C495.221 -14113.2 592.668 -13750.6 679.182 -13354.9C728.144 -13130.3 774.253 -12893.4 816.084 -12648.2C861.004 -12386.5 902.36 -12106.3 939.675 -11815.7C1013.59 -11240.8 1073.01 -10567 1111.51 -9866.42C1131.48 -9501.7 1145.5 -9132.86 1153.58 -8768.15C1161.9 -8386.94 1163.33 -8009.86 1158.1 -7647.2C1152.87 -7296.91 1141.46 -6944.55 1130.53 -6606.62C1121.02 -6318.14 1111.28 -6017.3 1105.57 -5718.52C1098.92 -5384.71 1098.2 -5085.93 1103.2 -4807.75C1114.37 -4173.1 1157.86 -3606.45 1199.93 -3060.4C1203.02 -3019.19 1206.35 -2977.98 1209.44 -2936.77C1236.06 -2590.59 1259.35 -2277.39 1276.46 -1949.76C1285.73 -1770.49 1292.39 -1603.59 1296.9 -1438.74C1301.66 -1255.35 1303.56 -1078.14 1302.84 -898.874C1301.89 -684.576 1296.66 -472.338 1286.92 -251.858C1278.36 -54.0448 1266.24 145.828 1250.08 360.126C1215.85 809.328 1169.27 1252.35 1124.35 1680.95C1074.91 2148.69 1023.81 2634.98 988.636 3133.64C969.622 3403.57 956.55 3654.96 948.707 3904.29C939.913 4184.52 938.011 4452.39 942.765 4726.45C954.411 5396.13 1007.41 5964.85 1058.51 6512.95C1073.01 6669.56 1087.98 6830.28 1101.77 6988.94C1126.01 7271.24 1157.39 7708.08 1168.79 8194.37C1174.02 8416.91 1174.74 8627.09 1170.46 8820.78C1165.94 9033.02 1155.48 9226.71 1139.56 9397.74C1114.84 9659.43 1079.9 9849 1035.22 9960.27C996.48 10057.1 950.608 10096.3 898.795 10075.7C850.784 10057.1 798.496 9991.18 739.314 9873.72C708.179 9811.91 676.568 9745.97 646.145 9682.09L643.293 9675.91C479.059 9333.86 309.121 8981.5 137.044 8864.05C38.408 8796.05 -47.1553 8826.96 -132.243 8956.78C-220.659 9092.77 -304.083 9331.8 -381.09 9570.82C-478.775 9875.79 -565.764 10131.3 -646.574 10353.8C-745.21 10625.8 -836.24 10850.4 -924.893 11042.1C-1002.38 11211 -1085.56 11371.7 -1167.8 11413C-1226.5 11441.8 -1281.41 11417.1 -1335.6 11338.8C-1381.94 11270.8 -1427.82 11163.6 -1479.63 11002.9C-1588.48 10662.9 -1685.93 10104.5 -1761.27 9387.43C-1777.91 9228.77 -1792.41 9057.74 -1805.24 8864.05C-1816.89 8690.96 -1827.11 8505.51 -1836.38 8295.34C-1853.97 7903.83 -1865.85 7485.54 -1877.5 7081.67C-1885.34 6807.61 -1893.42 6523.26 -1903.4 6249.2C-1914.1 5950.42 -1927.89 5645.46 -1945.24 5317.83C-1982.79 4609 -2031.51 3914.59 -2078.81 3244.91C-2125.16 2587.59 -2172.93 1905.55 -2209.53 1219.38C-2229.26 850.54 -2243.99 506.427 -2255.17 172.616C-2267.52 -202.405 -2274.89 -560.943 -2277.27 -919.48C-2282.97 -1698.37 -2265.62 -2520.53 -2224.27 -3429.24C-2185.29 -4288.49 -2129.91 -5108.59 -2080.95 -5798.88C-2074.29 -5891.61 -2067.64 -5986.39 -2060.98 -6079.12C-2018.92 -6676.68 -1974.95 -7292.79 -1936.68 -7913.01C-1893.66 -8607.42 -1862.29 -9231.77 -1841.13 -9821.09C-1822.83 -10330 -1808.81 -10892.6 -1798.59 -11541.7C-1789.56 -12120.7 -1784.09 -12714.1 -1778.86 -13287C-1777.67 -13429.1 -1776.25 -13575.4 -1774.82 -13719.7C-1766.27 -14609.8 -1753.67 -15518.5 -1741.55 -16396.3C-1738.7 -16598.3 -1735.84 -16806.4 -1732.99 -17010.4C-1727.05 -17447.2 -1718.97 -17906.7 -1699.95 -18327.1C-1678.56 -18798.9 -1646.71 -19138.9 -1602.51 -19363.5C-1548.32 -19639.7 -1480.58 -19711.8 -1415.22 -19748.9C-1368.4 -19775.6 -1321.57 -19786 -1274.28 -19783.9C-1206.54 -19779.8 -1138.33 -19746.8 -1070.59 -19682.9ZM-1168.27 11408.8C-1086.27 11367.6 -1003.09 11206.9 -925.606 11037.9C-836.953 10846.3 -745.923 10619.6 -647.287 10349.7C-566.477 10127.2 -479.488 9871.66 -381.803 9566.7C-305.034 9327.68 -221.61 9086.59 -132.956 8950.59C-47.8685 8820.78 37.695 8789.87 136.331 8857.87C308.646 8975.32 478.346 9329.74 642.58 9669.73L645.432 9675.91C676.092 9739.79 707.704 9805.73 738.601 9867.54C797.783 9984.99 850.071 10050.9 898.082 10069.5C949.895 10090.1 995.767 10050.9 1034.27 9954.09C1078.72 9842.82 1113.89 9653.24 1138.37 9391.55C1154.3 9220.53 1164.75 9026.83 1169.27 8814.6C1173.55 8620.9 1172.84 8410.73 1167.61 8190.25C1155.96 7706.02 1124.82 7267.12 1100.58 6986.88C1086.8 6826.16 1071.82 6665.44 1057.32 6510.89C1005.99 5960.73 952.985 5394.07 941.339 4722.33C936.585 4448.27 938.724 4180.4 947.281 3900.17C955.124 3650.84 968.196 3399.45 987.21 3129.52C1022.62 2628.8 1073.72 2144.57 1123.16 1674.76C1168.32 1246.17 1214.9 805.208 1248.89 356.006C1265.05 141.708 1277.18 -58.1661 1285.73 -255.98C1295.48 -476.459 1300.7 -688.697 1301.66 -902.996C1302.61 -1082.26 1300.7 -1259.47 1295.71 -1440.8C1291.44 -1605.65 1284.78 -1772.55 1275.27 -1949.76C1258.16 -2277.39 1234.63 -2590.59 1208.25 -2936.77C1205.16 -2977.98 1201.83 -3019.19 1198.74 -3060.4C1156.67 -3608.51 1113.18 -4173.1 1102.01 -4809.81C1097.02 -5087.99 1097.73 -5384.71 1104.38 -5720.58C1110.33 -6019.36 1120.07 -6318.14 1129.58 -6608.68C1140.75 -6948.67 1152.16 -7298.97 1157.15 -7649.26C1162.38 -8011.92 1160.95 -8386.94 1152.63 -8768.15C1144.79 -9132.86 1130.53 -9501.7 1110.56 -9866.42C1072.3 -10567 1012.88 -11240.8 938.962 -11815.7C901.885 -12106.3 860.291 -12386.5 815.371 -12648.2C773.54 -12893.4 727.43 -13130.3 678.469 -13354.9C592.193 -13750.6 494.746 -14113.2 380.899 -14465.6C358.082 -14535.6 335.027 -14605.7 312.448 -14673.7C263.962 -14820 213.813 -14970.4 165.565 -15137.3C133.003 -15250.7 103.769 -15364 76.4362 -15481.4C1.80591 -15802.9 -67.3578 -16204.7 -134.382 -16592.1C-141.037 -16631.2 -147.692 -16670.4 -154.585 -16709.5C-192.375 -16928 -232.067 -17125.8 -266.293 -17296.8C-394.638 -17931.4 -524.409 -18450.7 -652.041 -18840.2C-720.729 -19050.3 -789.893 -19225.5 -857.868 -19363.5C-928.933 -19507.8 -1000.71 -19614.9 -1070.83 -19680.9C-1185.62 -19788 -1301.85 -19810.7 -1415.69 -19746.8C-1480.82 -19709.7 -1548.79 -19637.6 -1602.74 -19361.5C-1646.71 -19136.9 -1678.56 -18798.9 -1699.95 -18327.1C-1718.97 -17906.7 -1727.05 -17447.2 -1732.99 -17010.4C-1735.84 -16806.4 -1738.7 -16598.3 -1741.55 -16396.3C-1753.67 -15518.5 -1766.27 -14611.9 -1774.82 -13719.7C-1776.25 -13575.4 -1777.44 -13429.1 -1778.86 -13287C-1784.09 -12714.1 -1789.56 -12120.7 -1798.59 -11541.7C-1808.57 -10892.6 -1822.36 -10328 -1840.9 -9819.03C-1862.05 -9231.77 -1893.42 -8607.42 -1936.44 -7910.95C-1974.71 -7290.73 -2018.44 -6674.62 -2060.75 -6079.12C-2067.4 -5986.39 -2074.06 -5891.61 -2080.71 -5798.88C-2129.67 -5108.59 -2184.81 -4288.49 -2224.03 -3429.24C-2265.39 -2520.53 -2282.74 -1700.43 -2277.03 -921.54C-2274.42 -563.003 -2267.29 -206.526 -2254.93 170.556C-2243.99 506.427 -2229.02 848.48 -2209.29 1217.32C-2172.93 1903.49 -2124.92 2585.53 -2078.57 3242.85C-2031.51 3912.53 -1982.55 4606.94 -1945 5315.77C-1927.65 5643.4 -1913.86 5948.36 -1903.17 6247.14C-1893.42 6521.2 -1885.1 6805.55 -1877.26 7079.61C-1865.61 7483.48 -1853.73 7901.77 -1836.14 8293.28C-1816.65 8732.18 -1791.93 9088.65 -1761.04 9383.31C-1685.69 10100.4 -1588.48 10658.8 -1479.63 10998.8C-1427.58 11161.6 -1381.94 11266.7 -1335.6 11334.7C-1297.81 11390.3 -1259.54 11419.1 -1219.85 11421.2C-1203.21 11423.3 -1185.86 11419.1 -1168.27 11408.8Z" fill="#8E4B9D"/>
<path d="M-1761.27 9387.43C-1685.93 10104.5 -1588.48 10662.9 -1479.63 11002.9C-1427.82 11163.6 -1381.94 11270.8 -1335.6 11338.8C-1281.41 11417.1 -1226.5 11441.8 -1167.8 11413C-1085.56 11371.7 -1002.38 11211 -924.893 11042.1C-836.24 10850.4 -745.21 10625.8 -646.574 10353.8C-565.764 10131.3 -478.775 9875.79 -381.09 9570.82C-304.083 9331.8 -220.659 9092.77 -132.243 8956.78C-47.1553 8826.96 38.408 8796.05 137.044 8864.05C309.121 8981.5 479.059 9333.86 643.293 9675.91L646.145 9682.09C676.568 9745.97 708.179 9811.91 739.314 9873.72C798.496 9991.18 850.784 10057.1 898.795 10075.7C950.608 10096.3 996.48 10057.1 1035.22 9960.27C1079.9 9849 1114.84 9659.43 1139.56 9397.74C1155.48 9226.71 1165.94 9033.02 1170.46 8820.78C1174.74 8627.09 1174.02 8416.91 1168.79 8194.37C1157.39 7708.08 1126.01 7271.24 1101.77 6988.94C1087.98 6830.28 1073.01 6669.56 1058.51 6512.95C1007.41 5964.85 954.411 5396.13 942.765 4726.45C938.011 4452.39 939.913 4184.52 948.707 3904.29C956.55 3654.96 969.622 3403.57 988.636 3133.64C1023.81 2634.98 1074.91 2148.69 1124.35 1680.95C1169.27 1252.35 1215.85 809.328 1250.08 360.126C1266.24 145.828 1278.36 -54.0448 1286.92 -251.858C1296.66 -472.338 1301.89 -684.576 1302.84 -898.874C1303.56 -1078.14 1301.66 -1255.35 1296.9 -1438.74C1292.39 -1603.59 1285.73 -1770.49 1276.46 -1949.76C1259.35 -2277.39 1236.06 -2590.59 1209.44 -2936.77C1206.35 -2977.98 1203.02 -3019.19 1199.93 -3060.4C1157.86 -3606.45 1114.37 -4173.1 1103.2 -4807.75C1098.2 -5085.93 1098.92 -5384.71 1105.57 -5718.52C1111.28 -6017.3 1121.02 -6318.14 1130.53 -6606.62C1141.46 -6944.55 1152.87 -7296.91 1158.1 -7647.2C1163.33 -8009.86 1161.9 -8386.94 1153.58 -8768.15C1145.5 -9132.86 1131.48 -9501.7 1111.51 -9866.42C1073.01 -10567 1013.59 -11240.8 939.675 -11815.7C902.36 -12106.3 861.004 -12386.5 816.084 -12648.2C774.253 -12893.4 728.144 -13130.3 679.182 -13354.9C592.668 -13750.6 495.221 -14113.2 381.374 -14465.6C358.557 -14535.6 335.503 -14605.7 312.924 -14673.7C264.438 -14820 214.288 -14968.4 166.04 -15137.3C133.478 -15250.7 104.244 -15364 76.9115 -15481.4C2.28129 -15802.9 -66.8824 -16204.7 -133.907 -16592.1C-140.8 -16631.2 -147.455 -16670.4 -154.11 -16709.5C-191.662 -16928 -231.592 -17127.8 -265.817 -17296.8C-394.162 -17929.4 -524.171 -18448.6 -651.803 -18840.2C-720.254 -19050.3 -789.655 -19227.5 -857.63 -19365.6C-928.696 -19509.8 -1000.24 -19617 -1070.59 -19682.9C-1138.33 -19746.8 -1206.54 -19779.8 -1274.28 -19783.9C-1321.57 -19786 -1368.4 -19775.6 -1415.22 -19748.9C-1480.58 -19711.8 -1548.32 -19639.7 -1602.51 -19363.5C-1646.71 -19138.9 -1678.56 -18798.9 -1699.95 -18327.1M-1761.27 9387.43H-1761.04M-1761.27 9387.43C-1777.91 9228.77 -1792.41 9057.74 -1805.24 8864.05C-1816.89 8690.96 -1827.11 8505.51 -1836.38 8295.34C-1853.97 7903.83 -1865.85 7485.54 -1877.5 7081.67C-1885.34 6807.61 -1893.42 6523.26 -1903.4 6249.2C-1914.1 5950.42 -1927.89 5645.46 -1945.24 5317.83C-1982.79 4609 -2031.51 3914.59 -2078.81 3244.91C-2125.16 2587.59 -2172.93 1905.55 -2209.53 1219.38C-2229.26 850.54 -2243.99 506.427 -2255.17 172.616C-2267.52 -202.405 -2274.89 -560.943 -2277.27 -919.48C-2282.97 -1698.37 -2265.62 -2520.53 -2224.27 -3429.24C-2185.29 -4288.49 -2129.91 -5108.59 -2080.95 -5798.88C-2074.29 -5891.61 -2067.64 -5986.39 -2060.98 -6079.12C-2018.92 -6676.68 -1974.95 -7292.79 -1936.68 -7913.01C-1893.66 -8607.42 -1862.29 -9231.77 -1841.13 -9821.09C-1822.83 -10330 -1808.81 -10892.6 -1798.59 -11541.7M-1798.59 -11541.7C-1789.56 -12120.7 -1784.09 -12714.1 -1778.86 -13287M-1798.59 -11541.7C-1808.57 -10892.6 -1822.36 -10328 -1840.9 -9819.03C-1862.05 -9231.77 -1893.42 -8607.42 -1936.44 -7910.95C-1974.71 -7290.73 -2018.44 -6674.62 -2060.75 -6079.12C-2067.4 -5986.39 -2074.06 -5891.61 -2080.71 -5798.88C-2129.67 -5108.59 -2184.81 -4288.49 -2224.03 -3429.24C-2265.39 -2520.53 -2282.74 -1700.43 -2277.03 -921.54C-2274.42 -563.003 -2267.29 -206.526 -2254.93 170.556C-2243.99 506.427 -2229.02 848.48 -2209.29 1217.32C-2172.93 1903.49 -2124.92 2585.53 -2078.57 3242.85C-2031.51 3912.53 -1982.55 4606.94 -1945 5315.77C-1927.65 5643.4 -1913.86 5948.36 -1903.17 6247.14C-1893.42 6521.2 -1885.1 6805.55 -1877.26 7079.61C-1865.61 7483.48 -1853.73 7901.77 -1836.14 8293.28C-1816.65 8732.18 -1791.93 9088.65 -1761.04 9383.31C-1685.69 10100.4 -1588.48 10658.8 -1479.63 10998.8C-1427.58 11161.6 -1381.94 11266.7 -1335.6 11334.7C-1297.81 11390.3 -1259.54 11419.1 -1219.85 11421.2C-1203.21 11423.3 -1185.86 11419.1 -1168.27 11408.8C-1086.27 11367.6 -1003.09 11206.9 -925.606 11037.9C-836.953 10846.3 -745.923 10619.6 -647.287 10349.7C-566.477 10127.2 -479.488 9871.66 -381.803 9566.7C-305.034 9327.68 -221.61 9086.59 -132.956 8950.59C-47.8685 8820.78 37.695 8789.87 136.331 8857.87C308.646 8975.32 478.346 9329.74 642.58 9669.73L645.432 9675.91C676.092 9739.79 707.704 9805.73 738.601 9867.54C797.783 9984.99 850.071 10050.9 898.082 10069.5C949.895 10090.1 995.767 10050.9 1034.27 9954.09C1078.72 9842.82 1113.89 9653.24 1138.37 9391.55C1154.3 9220.53 1164.75 9026.83 1169.27 8814.6C1173.55 8620.9 1172.84 8410.73 1167.61 8190.25C1155.96 7706.02 1124.82 7267.12 1100.58 6986.88C1086.8 6826.16 1071.82 6665.44 1057.32 6510.89C1005.99 5960.73 952.985 5394.07 941.339 4722.33C936.585 4448.27 938.724 4180.4 947.281 3900.17C955.124 3650.84 968.196 3399.45 987.21 3129.52C1022.62 2628.8 1073.72 2144.57 1123.16 1674.76C1168.32 1246.17 1214.9 805.208 1248.89 356.006C1265.05 141.708 1277.18 -58.1661 1285.73 -255.98C1295.48 -476.459 1300.7 -688.697 1301.66 -902.996C1302.61 -1082.26 1300.7 -1259.47 1295.71 -1440.8C1291.44 -1605.65 1284.78 -1772.55 1275.27 -1949.76C1258.16 -2277.39 1234.63 -2590.59 1208.25 -2936.77C1205.16 -2977.98 1201.83 -3019.19 1198.74 -3060.4C1156.67 -3608.51 1113.18 -4173.1 1102.01 -4809.81C1097.02 -5087.99 1097.73 -5384.71 1104.38 -5720.58C1110.33 -6019.36 1120.07 -6318.14 1129.58 -6608.68C1140.75 -6948.67 1152.16 -7298.97 1157.15 -7649.26C1162.38 -8011.92 1160.95 -8386.94 1152.63 -8768.15C1144.79 -9132.86 1130.53 -9501.7 1110.56 -9866.42C1072.3 -10567 1012.88 -11240.8 938.962 -11815.7C901.885 -12106.3 860.291 -12386.5 815.371 -12648.2C773.54 -12893.4 727.43 -13130.3 678.469 -13354.9C592.193 -13750.6 494.746 -14113.2 380.899 -14465.6C358.082 -14535.6 335.027 -14605.7 312.448 -14673.7C263.962 -14820 213.813 -14970.4 165.565 -15137.3C133.003 -15250.7 103.769 -15364 76.4362 -15481.4C1.80591 -15802.9 -67.3578 -16204.7 -134.382 -16592.1C-141.037 -16631.2 -147.692 -16670.4 -154.585 -16709.5C-192.375 -16928 -232.067 -17125.8 -266.293 -17296.8C-394.638 -17931.4 -524.409 -18450.7 -652.041 -18840.2C-720.729 -19050.3 -789.893 -19225.5 -857.868 -19363.5C-928.933 -19507.8 -1000.71 -19614.9 -1070.83 -19680.9C-1185.62 -19788 -1301.85 -19810.7 -1415.69 -19746.8C-1480.82 -19709.7 -1548.79 -19637.6 -1602.74 -19361.5C-1646.71 -19136.9 -1678.56 -18798.9 -1699.95 -18327.1M-1778.86 -13287C-1777.67 -13429.1 -1776.25 -13575.4 -1774.82 -13719.7M-1778.86 -13287C-1777.44 -13429.1 -1776.25 -13575.4 -1774.82 -13719.7M-1774.82 -13719.7C-1766.27 -14609.8 -1753.67 -15518.5 -1741.55 -16396.3M-1774.82 -13719.7C-1766.27 -14611.9 -1753.67 -15518.5 -1741.55 -16396.3M-1741.55 -16396.3C-1738.7 -16598.3 -1735.84 -16806.4 -1732.99 -17010.4C-1727.05 -17447.2 -1718.97 -17906.7 -1699.95 -18327.1" stroke="#8E4B9D" stroke-width="0.5" stroke-miterlimit="10"/>
<path d="M-1095.31 -20027C-948.898 -19876.6 -800.351 -19567.5 -653.704 -19108C-517.278 -18681.5 -381.565 -18121 -249.893 -17443.1C-216.381 -17270 -176.927 -17064 -138.423 -16837.3L-128.916 -16781.7C-58.5639 -16367.5 14.4026 -15941 93.7864 -15607.1C121.357 -15491.7 150.829 -15380.5 184.103 -15271.3C233.065 -15108.5 284.165 -14964.2 333.602 -14824.1C356.181 -14760.3 379.711 -14694.3 402.528 -14626.3C518.038 -14288.4 616.911 -13936 704.614 -13544.5C754.288 -13324 800.872 -13089.1 843.179 -12846C888.575 -12584.3 930.406 -12306.1 967.721 -12015.6C1043.06 -11432.4 1103.2 -10744.2 1140.99 -10029.2C1160.71 -9656.25 1174.26 -9279.17 1181.63 -8906.2C1189.23 -8516.76 1189.47 -8131.43 1182.82 -7762.59C1176.4 -7410.24 1163.33 -7055.82 1150.97 -6713.77C1140.04 -6417.05 1128.87 -6110.03 1121.97 -5805.06C1114.13 -5463.01 1112.7 -5158.05 1117.69 -4873.69C1128.87 -4204.01 1177.35 -3614.69 1223.94 -3043.92C1225.84 -3019.19 1227.98 -2994.46 1229.88 -2969.74C1255.07 -2662.71 1283.59 -2314.48 1303.79 -1964.18C1314.25 -1780.79 1322.1 -1609.77 1327.32 -1440.8C1333.27 -1253.29 1335.88 -1071.96 1335.64 -886.511C1335.41 -663.97 1330.65 -445.552 1321.15 -218.89C1312.59 -14.8952 1300.7 191.161 1284.31 409.58C1248.89 883.508 1199.22 1345.07 1151.44 1792.22C1101.06 2262.02 1048.77 2748.31 1012.88 3249.03C993.627 3518.96 980.318 3772.41 972.474 4021.74C963.68 4301.97 961.779 4571.91 966.532 4848.02C971.999 5157.11 986.973 5470.31 1012.17 5808.24C1034.51 6109.09 1062.55 6395.5 1089.89 6675.74C1104.86 6830.28 1120.31 6988.94 1134.57 7147.61C1160.24 7431.96 1193.51 7877.05 1206.59 8373.64C1212.53 8600.3 1213.48 8816.66 1209.68 9014.47C1205.4 9232.89 1194.94 9430.7 1178.78 9605.85C1154.06 9871.66 1118.41 10065.4 1073.25 10176.6C1040.21 10259.1 1001.95 10298.2 958.927 10296.1C950.846 10296.1 942.765 10294.1 934.446 10290C886.198 10271.4 831.77 10201.4 772.589 10083.9C742.879 10024.1 712.695 9962.33 683.223 9900.51L674.904 9884.03C580.784 9688.27 502.114 9529.61 419.64 9389.49C323.619 9228.77 238.769 9125.74 160.336 9078.35C59.5611 9016.53 -27.4284 9057.74 -113.467 9204.04C-201.883 9354.46 -286.733 9618.22 -365.166 9879.91C-464.039 10209.6 -551.742 10483.7 -633.74 10722.7C-733.564 11013.2 -825.782 11250.2 -915.623 11448C-988.59 11610.8 -1075.1 11781.8 -1162.09 11837.4C-1221.99 11874.5 -1278.32 11862.2 -1334.88 11802.4C-1384.56 11748.8 -1435.18 11652 -1489.14 11511.9C-1573.27 11293.4 -1693.54 10844.2 -1789.32 9947.91C-1806.91 9783.06 -1822.12 9605.85 -1835.67 9403.92C-1847.79 9224.65 -1858.48 9030.96 -1868.23 8810.48C-1886.29 8402.49 -1898.65 7963.59 -1910.53 7541.17C-1918.62 7248.57 -1927.17 6947.73 -1937.39 6659.25C-1948.56 6346.05 -1962.82 6026.66 -1981.12 5684.61C-2021.29 4930.45 -2073.82 4194.83 -2124.68 3481.87C-2173.4 2797.77 -2224.03 2091 -2262.53 1378.04C-2283.21 994.78 -2299.14 638.302 -2311.02 290.068C-2324.33 -101.438 -2332.17 -472.338 -2335.02 -845.3C-2341.44 -1661.28 -2323.85 -2522.59 -2280.6 -3476.63C-2240.19 -4368.85 -2182.2 -5234.29 -2130.86 -5963.73C-2124.68 -6050.27 -2118.5 -6138.88 -2112.08 -6225.42C-2069.06 -6829.16 -2024.86 -7451.45 -1986.12 -8079.92C-1942.62 -8784.63 -1911.49 -9417.22 -1890.57 -10014.8C-1872.74 -10523.7 -1859.91 -11086.3 -1850.88 -11737.4C-1842.8 -12316.4 -1838.52 -12909.9 -1834.48 -13482.7C-1833.29 -13637.2 -1832.34 -13795.9 -1831.15 -13952.5C-1823.07 -15075.5 -1808.81 -16194.4 -1794.79 -17276.2C-1789.32 -17708.9 -1780.76 -18211.7 -1760.32 -18658.8C-1737.74 -19153.4 -1703.99 -19507.8 -1657.41 -19742.7C-1600.13 -20031.2 -1528.35 -20099.2 -1459.43 -20132.1C-1417.6 -20150.7 -1375.53 -20161 -1333.46 -20156.9C-1254.31 -20150.7 -1174.45 -20107.4 -1095.31 -20027ZM-1789.32 9941.72C-1693.54 10838.1 -1573.27 11285.2 -1489.37 11505.7C-1435.18 11645.8 -1384.8 11740.6 -1335.12 11796.2C-1278.79 11858 -1222.23 11870.4 -1162.57 11831.3C-1075.58 11777.7 -989.303 11604.6 -916.336 11441.8C-826.495 11244 -734.514 11005 -634.453 10716.5C-552.692 10479.5 -464.752 10203.4 -365.879 9873.72C-287.208 9612.03 -202.358 9348.28 -113.942 9197.86C-27.9037 9049.5 59.0855 9010.35 159.86 9072.17C238.531 9119.56 323.381 9222.59 419.402 9383.31C501.876 9521.37 580.309 9682.09 674.666 9877.85L682.985 9894.33C712.219 9954.09 742.404 10018 772.114 10077.7C831.295 10195.2 885.96 10265.2 933.971 10283.8C986.735 10304.4 1033.56 10267.3 1072.54 10170.4C1117.69 10059.2 1153.35 9867.54 1178.06 9599.67C1194.23 9424.52 1204.68 9226.71 1208.96 9008.29C1213 8810.48 1211.81 8596.18 1205.87 8369.52C1192.8 7872.92 1159.53 7429.9 1133.86 7143.48C1119.6 6984.82 1104.15 6826.16 1089.17 6671.62C1062.08 6393.44 1033.79 6104.96 1011.45 5804.12C986.26 5466.19 971.286 5152.99 965.82 4843.9C960.828 4567.79 962.967 4297.85 971.761 4017.62C979.605 3768.29 992.915 3514.84 1012.17 3244.91C1048.06 2742.13 1100.34 2257.9 1150.73 1788.1C1198.74 1340.95 1248.42 879.388 1283.59 405.46C1299.99 187.041 1311.88 -19.0153 1320.43 -223.011C1329.7 -449.672 1334.45 -668.092 1334.93 -888.572C1335.17 -1071.96 1332.55 -1253.29 1326.61 -1440.8C1321.38 -1609.77 1313.54 -1780.79 1303.08 -1962.12C1282.88 -2312.42 1254.36 -2660.65 1229.16 -2967.67C1227.26 -2992.4 1225.12 -3017.13 1223.22 -3041.86C1176.4 -3612.63 1128.15 -4201.95 1116.98 -4871.63C1111.99 -5155.99 1113.42 -5460.95 1121.26 -5803C1128.15 -6107.97 1139.56 -6414.99 1150.26 -6711.71C1162.85 -7053.76 1175.69 -7406.12 1182.1 -7758.47C1188.76 -8127.31 1188.28 -8510.58 1180.92 -8900.02C1173.79 -9272.98 1160.24 -9650.07 1140.27 -10023C1102.25 -10740.1 1042.35 -11426.3 967.008 -12009.4C929.693 -12299.9 887.624 -12578.1 842.466 -12839.8C800.159 -13083 753.575 -13317.9 703.9 -13538.3C616.198 -13927.8 517.325 -14282.2 401.814 -14618.1C378.997 -14684 355.468 -14752 332.888 -14815.9C283.452 -14956 232.351 -15100.2 183.39 -15263C150.115 -15374.3 120.644 -15483.5 93.0734 -15598.9C13.6896 -15932.7 -59.0392 -16359.2 -129.629 -16773.4L-139.136 -16829.1C-177.64 -17053.7 -217.094 -17261.8 -250.606 -17434.9C-382.041 -18112.8 -517.991 -18671.2 -654.417 -19099.8C-801.064 -19559.3 -949.611 -19868.4 -1095.78 -20018.8C-1217 -20144.5 -1339.64 -20177.5 -1459.9 -20121.8C-1528.83 -20088.9 -1600.61 -20020.9 -1657.89 -19732.4C-1704.47 -19499.5 -1737.98 -19145.1 -1760.56 -18650.6C-1781 -18203.4 -1789.32 -17702.7 -1794.79 -17270C-1808.57 -16188.2 -1823.07 -15069.3 -1831.63 -13952.5C-1832.81 -13795.9 -1834 -13637.2 -1834.95 -13482.7C-1838.99 -12909.9 -1843.27 -12316.4 -1851.35 -11737.4C-1860.15 -11090.4 -1872.98 -10527.9 -1890.81 -10018.9C-1911.72 -9421.34 -1942.86 -8788.75 -1986.35 -8084.04C-2025.09 -7455.57 -2069.3 -6833.28 -2112.32 -6229.54C-2118.5 -6140.93 -2124.68 -6054.39 -2131.1 -5967.85C-2182.44 -5240.47 -2240.19 -4375.04 -2280.6 -3482.81C-2323.85 -2530.84 -2341.44 -1669.52 -2335.02 -853.542C-2332.17 -480.581 -2324.33 -109.68 -2311.02 281.826C-2299.14 630.061 -2283.45 986.537 -2262.53 1369.8C-2223.79 2082.75 -2173.4 2789.53 -2124.68 3473.63C-2073.82 4186.58 -2021.29 4922.2 -1981.12 5676.37C-1962.82 6018.42 -1948.56 6337.81 -1937.39 6653.07C-1927.17 6941.55 -1918.62 7244.45 -1910.53 7534.99C-1898.65 7957.41 -1886.53 8396.31 -1868.23 8804.3C-1858.48 9024.78 -1847.79 9218.47 -1835.67 9397.74C-1822.12 9599.67 -1806.91 9776.88 -1789.32 9941.72Z" fill="#8E4B9D" stroke="#8E4B9D" stroke-width="2" stroke-miterlimit="10"/>
</g>
</svg>
